<?xml version="1.0" standalone="no"?>
<!DOCTYPE svg PUBLIC "-//W3C//DTD SVG 1.1//EN" "http://www.w3.org/Graphics/SVG/1.1/DTD/svg11.dtd" >
<svg xmlns="http://www.w3.org/2000/svg" xmlns:xlink="http://www.w3.org/1999/xlink" version="1.1">
<metadata></metadata>
<defs>
<font id="springtime_bluesmedium" horiz-adv-x="866" >
<font-face units-per-em="2048" ascent="1638" descent="-410" />
<missing-glyph horiz-adv-x="847" />
<glyph horiz-adv-x="0" />
<glyph unicode="&#xd;" horiz-adv-x="681" />
<glyph unicode=" "  horiz-adv-x="847" />
<glyph unicode="&#x09;" horiz-adv-x="847" />
<glyph unicode="&#xa0;" horiz-adv-x="847" />
<glyph unicode="!" horiz-adv-x="145" d="M29 442l2 27q0 27 2 72t2 84v84v122q0 78 2 132q2 53 2 132t-1 142t-3 123q-2 59 -2 78v20q0 14 10 23.5t23.5 9.5t23.5 -9t10 -24v-20q0 -18 2 -76q2 -59 3 -122.5t1 -143.5t-2 -135q-2 -53 -2 -132v-120v-84q0 -41 -2 -86q-2 -47 -2 -74l-2 -27q0 -14 -11 -23t-24.5 -8 t-22.5 11t-9 24zM43 90q0 14 10 24.5t24.5 10.5t22.5 -10l6 -6q10 -10 10.5 -24.5t-9 -24t-23.5 -9.5t-25 10l-6 7q-10 8 -10 22z" />
<glyph unicode="&#x22;" horiz-adv-x="346" d="M29 1436q-2 14 6 25.5t22.5 13.5t25.5 -6.5t13 -22.5l2 -19q4 -18 13 -84q10 -66 15 -134t5 -96t-2 -54l-2 -27q0 -14 -11.5 -23.5t-24.5 -8.5t-22.5 11.5t-9.5 24.5l2 27q2 25 2 50.5t-5 91t-13 128.5q-10 66 -12 84zM242 1210v88q2 35 2 60q2 27 4 49l2 23q2 12 13 21 t24.5 8t22.5 -12t7 -26l-2 -20q-2 -20 -4 -47q0 -25 -1 -58.5t-1 -85.5q2 -53 4 -86l4 -37q0 -12 -9 -23t-22.5 -12t-24.5 8t-11 23l-4 35q-2 37 -4 92z" />
<glyph unicode="#" horiz-adv-x="1021" d="M29 311.5q-2 14.5 7 24.5t23 12l31 2q29 2 74 17q51 12 190 34q8 0 17 2v52q0 80 -9 157q-72 -18 -137 -32q-72 -18 -102 -35l-35 -17q-12 -8 -25.5 -3t-20.5 17.5t-2 26t17 19.5l35 18q39 20 119 39q68 16 143 35q-2 27 -6 53q-23 143 -31 238l-8 92q0 12 9.5 23.5 t22.5 12.5t24.5 -8.5t11.5 -21.5l8 -94q8 -90 29 -232q4 -23 8 -47q27 6 57 11q-4 39 -6 79q-8 139 -12 191l-4 51q0 14 9 24.5t22.5 11.5t24.5 -8t11 -22l4 -51q2 -51 13 -192q2 -37 6 -72q23 2 47 6q139 20 235 27l95 6q14 0 24 -9.5t11.5 -22.5t-8 -24.5t-23.5 -11.5 l-94 -6q-94 -6 -230 -25q-27 -4 -51 -8q6 -57 12 -108q8 -57 15 -119q37 2 73 4q160 6 236 2l72 -2q14 0 24 -11t9 -24.5t-11 -23t-25 -9.5l-73 2q-72 4 -230 -2q-35 0 -67 -2q2 -31 4 -61q10 -133 12 -195v-100l2 -43q0 -12 -10 -22.5t-23.5 -10.5t-23.5 9.5t-10 23.5 l-2 41v102q-2 57 -13 189q-2 31 -4 61q-43 -4 -82 -8q0 -82 -2 -160q-4 -125 4 -186l9 -64q2 -14 -7.5 -25t-22.5 -12t-24.5 7t-13.5 22l-8 64q-8 68 -4 196q2 72 2 150q-2 -2 -6 -2q-135 -20 -183 -33q-53 -14 -86 -18l-30 -2q-14 -2 -24.5 7t-12.5 23.5zM428 629 q10 -86 10 -174v-43l74 8q-6 59 -14 112q-7 52 -13 107q-31 -4 -57 -10z" />
<glyph unicode="&#x26;" horiz-adv-x="673" d="M29 205q2 47 8 80q6 37 29 84q20 47 51 96q8 10 14 22q-31 45 -53 93q-29 55 -30 126.5t15 108.5q14 31 46 70q33 41 58.5 57t59.5 25q39 10 68 -2q25 -12 49 -39q27 -33 29 -76q2 -39 -11 -78q-12 -31 -18 -57q-8 -27 -29 -66q-20 -39 -47 -80q-27 -39 -45 -67l-10 -15 q18 -25 33 -43q25 -31 63 -73q39 -43 62 -72q20 -25 55 -61q12 -12 25 -23q6 14 8 31q2 35 -4 53q-6 23 -25 57q-10 16 -18 31q-2 6 -6 10q-14 4 -25 9q-39 16 -72 45q-51 43 -28 81q12 20 36.5 21.5t36.5 -10.5q18 -14 37 -29q23 -18 49 -51l4 -4h9q10 -2 20 -2q39 0 80 12 l47 12q12 4 24.5 -3t16.5 -20.5t-3 -25.5t-20 -16l-45 -13q-43 -12 -86 -14q23 -43 33 -70q8 -33 6 -79q-4 -39 -26 -76q25 -27 49 -51q27 -27 53 -45l29 -19q10 -8 13 -22.5t-5 -25.5t-21.5 -13t-25.5 6l-29 18q-31 23 -61 54q-23 20 -45 43q-23 -23 -47 -46 q-43 -35 -74 -51q-33 -16 -82 -24q-53 -8 -96 12q-45 18 -66 43q-18 23 -41 63q-25 47 -22 99zM96 203q-2 -35 15 -64q18 -35 32 -51q12 -14 41 -27q27 -12 60 -6q37 6 61 17q25 14 62 45q23 18 43 41q-14 16 -33 32q-35 37 -60 66q-20 27 -59 70q-39 45 -63 75 q-11 11 -21 25q-29 -43 -47 -84t-23 -70q-6 -29 -8 -69zM116 707q1 -56 21 -97q17 -30 35 -61q18 25 39 57q25 39 45 76q18 33 23 53q6 23 20 60q8 27 6 51q0 20 -12 35q-16 16 -27 22q-6 2 -24 -2q-23 -4 -39.5 -14t-40.5 -43q-25 -33 -37 -58q-10 -23 -9 -79z" />
<glyph unicode="'" horiz-adv-x="145" d="M29 1239q0 12 9 23.5t22.5 11.5t24.5 -9.5t11 -23.5l2 -31q0 -29 8 -108q8 -82 9 -158q2 -74 2 -106v-31q0 -14 -10.5 -24.5t-23.5 -10.5t-23.5 10.5t-10.5 22.5v33q0 33 -2 106q0 72 -8 152q-6 80 -8 112z" />
<glyph unicode="(" horiz-adv-x="493" d="M29 815q-2 219 39 340t102 223q63 102 104 142l39 34q10 8 24.5 7.5t24 -11t8.5 -24t-12 -23.5l-36 -35q-35 -31 -95 -125q-57 -96 -96 -208q-37 -111 -35 -318q2 -209 33 -317q31 -111 60.5 -174.5t62.5 -116.5q33 -51 65.5 -95t61.5 -75q31 -31 55 -59l25 -29 q8 -10 7 -24.5t-11.5 -23.5t-24.5 -8t-22 11l-25 28q-23 27 -53 60q-31 33 -67 79t-68 101q-35 55 -67 124t-65 183q-33 117 -34 334z" />
<glyph unicode=")" horiz-adv-x="528" d="M29 -138.5q0 13.5 10 23.5l22 21q23 18 50 45q25 25 57 61q31 35 94 140q61 100 98 200t54 172q18 70 18 178q2 109 -18 218q-23 109 -43 167q-20 57 -94 171t-97 135l-24 24q-10 10 -10.5 23.5t9 24t24 10.5t24.5 -9l24 -24q29 -25 107 -145.5t100 -186.5 q23 -63 45 -178q23 -115 21 -232q0 -115 -21 -192q-18 -74 -55 -178q-39 -106 -105 -215q-66 -106 -100 -148q-35 -39 -61 -65q-29 -27 -52 -47l-22 -21q-10 -8 -23.5 -7t-22.5 11t-9 23.5z" />
<glyph unicode="+" horiz-adv-x="823" d="M30 527.5q-3 13.5 3 25.5t20 16l21 6q25 6 63 15q37 6 127 33q57 16 113 30v131q-2 102 0 144l2 39q0 14 10 23t23.5 9t23.5 -10t10 -24l-2 -39q-2 -41 0 -142v-114q84 20 197 41l115 22q12 2 24.5 -6t14.5 -21.5t-6.5 -24.5t-20.5 -15l-115 -21q-115 -20 -198 -43 q-4 0 -11 -2q0 -45 -2 -98q-2 -180 -2 -293v-115q0 -12 -10 -22.5t-24.5 -10.5t-23.5 10.5t-9 22.5v115q0 113 2 295q0 41 2 78q-47 -12 -94 -25q-94 -27 -133 -33q-37 -8 -56 -14l-22 -6q-12 -2 -25.5 4t-16.5 19.5z" />
<glyph unicode="," horiz-adv-x="227" d="M30 -226.5q-3 13.5 5 25.5l10 17q12 18 31 41q16 18 37 63q20 43 20 100q-2 55 -24 95l-27 45q-8 12 -4 25.5t15 20.5t24.5 4t21.5 -15l29 -45q31 -55 33 -130q0 -72 -27 -129q-25 -53 -45 -77q-16 -20 -27 -37l-12 -17q-8 -10 -21.5 -13t-24.5 5t-14 21.5z" />
<glyph unicode="-" d="M29 528.5q-2 14.5 7 25.5t23 11l74 8q78 8 234 7q152 -2 262 -7q111 -6 147 -12l35 -6q12 -2 20.5 -14.5t6.5 -25.5t-14.5 -21.5t-24.5 -6.5l-35 9q-33 6 -137 10q-111 4 -262.5 6t-223.5 -6l-75 -8q-14 0 -24.5 8t-12.5 22.5z" />
<glyph unicode="." horiz-adv-x="129" d="M29 89q0 13 10 23.5t23.5 10.5t23.5 -10l6 -7q10 -10 10 -23t-10 -23.5t-23.5 -10.5t-23.5 10l-6 7q-10 10 -10 23z" />
<glyph unicode="/" horiz-adv-x="757" d="M31 23l55 127q53 127 96 229t89 207.5t138.5 329t139.5 323.5t84 154l35 51q8 12 22.5 14t25.5 -6t13 -21.5t-6 -25.5l-35 -51q-35 -49 -78 -144q-47 -98 -139 -319q-92 -225 -138 -330.5t-89 -207t-97 -230.5l-53 -127q-6 -12 -19.5 -17.5t-25.5 0t-17 18.5t-1 26z" />
<glyph unicode="0" horiz-adv-x="733" d="M35 567q-20 225 20 412q43 188 160 350q63 86 109.5 128t91.5 38q47 -2 80 -25q8 12 22 15q14 2 25.5 -7.5t13.5 -21.5l2 -14q0 -12 14 -66q14 -55 33 -119q16 -61 26.5 -113t22.5 -147q14 -92 33 -184q18 -94 17 -201q-2 -109 -54 -266q-53 -162 -153 -246 q-109 -92 -222 -47q-104 41 -163 168q-57 121 -78 346zM102 573q18 -213 72 -323q47 -102 127 -135q76 -29 154 37q84 74 131 215q49 147 51 245q2 100 -16 189q-16 92 -31 186q-14 92 -25 143q-8 51 -24 111q-18 63 -33 117v4q-12 4 -19 12l-24 33q-14 18 -53 20 q-8 2 -24.5 -9t-49.5 -45t-68 -83q-111 -152 -147 -325q-39 -176 -21 -392z" />
<glyph unicode="1" horiz-adv-x="169" d="M29 74l4 73q4 74 17 347.5t20 459.5q8 184 2 295q-6 113 -9 148l-4 37q0 14 8.5 25t22.5 12.5t24.5 -8t12.5 -23.5l4 -37q2 -37 8 -150q6 -115 -2 -303q-8 -186 -20.5 -459.5t-16.5 -345.5l-4 -73q0 -14 -11 -23.5t-24.5 -9.5t-22.5 11t-9 24z" />
<glyph unicode="2" horiz-adv-x="745" d="M32 -3.5q-9 23.5 1 42.5q10 18 41 59q27 39 71 117q47 78 82 144.5t96.5 199.5t118 274.5t80.5 221.5q27 80 35 159q6 72 -6 95q-14 20 -49 26q-37 8 -90 -28q-61 -39 -117 -101q-55 -59 -84 -114l-31 -60q-6 -12 -19.5 -16t-25.5 2t-17 19.5t3 25.5l31 59q33 66 94 131 q59 66 129 111q76 51 139.5 38t91.5 -56q29 -43 19 -138q-10 -88 -37 -174q-27 -82 -83 -225t-118.5 -277.5t-98.5 -203t-83 -148.5t-76 -121l-6 -8q27 10 51 17q37 8 98 12t129 6q68 0 124.5 5t85 9t46.5 9l21 4q14 2 25.5 -5.5t14.5 -21.5t-5 -25.5t-21 -13.5l-20 -4 q-20 -4 -51 -9t-90.5 -10.5t-127.5 -5.5q-68 -2 -124 -6q-57 -4 -87 -11t-59 -19q-41 -18 -67 -13q-25 4 -34 27.5z" />
<glyph unicode="3" horiz-adv-x="907" d="M37 313q20 53 63 97l37 39q8 10 22.5 10t25 -9.5t10.5 -23.5t-11 -25l-37 -39q-31 -33 -47 -73q-12 -35 9 -103q23 -68 75 -110q55 -43 121 -58q63 -14 135 11q76 25 142.5 78t120 130.5t81.5 170.5q29 92 27 145q0 49 -35 106q-33 57 -88 99q-53 43 -120.5 55t-139.5 -2 q-74 -14 -129 -39q-57 -25 -72 -31l-39 29q-14 16 -4 25q4 4 17 10q16 8 43 26q29 20 100 72q70 49 133 121t98 145q31 61 13 95q-18 37 -45 45q-27 10 -92 -15q-72 -25 -129 -67q-63 -43 -89 -62l-24 -16q-12 -8 -25.5 -6t-21.5 13t-5 25.5t13 22.5l25 17q25 18 86 61 q68 47 147 76q88 33 137 14q51 -18 82 -78q35 -61 -10 -153q-39 -82 -109 -162q-49 -55 -102 -98q78 14 154 -2q84 -16 149 -66q66 -51 107 -121t43 -137q2 -63 -29 -168q-33 -102 -91.5 -188t-134 -145.5t-163.5 -88.5q-90 -31 -172 -12q-80 18 -148 70q-68 55 -96 143 q-29 88 -8 147z" />
<glyph unicode="4" horiz-adv-x="944" d="M31 535q-6 20 12 43q20 29 68 79q47 51 114.5 145.5t130.5 207.5q63 115 119 217q51 94 66 121q2 6 4 10l10 16q6 12 20.5 16.5t25.5 -2t15.5 -20.5t-2.5 -27l-8 -14v-156q0 -88 2 -192q2 -106 2 -307v-37q80 -14 135 -29q66 -18 93 -26q23 -8 34 -11l15 -2 q14 -2 22.5 -13t6 -24.5t-13.5 -22.5t-23 -7l-17 2q-16 4 -45 12q-27 8 -90 27q-47 12 -117 26q2 -121 0 -176v-172q0 -92 2 -141l2 -49q0 -14 -9 -24.5t-23.5 -10.5t-24.5 9t-10 24l-2 49q-2 49 -2 143v172v189q-86 12 -174 8q-98 -8 -160 -29q-63 -20 -103 -39l-8 -4 t-14 -6t-19.5 -5t-19.5 6t-14 24zM164 616q12 4 24 9q70 23 177 28q88 6 178 -6v25q0 201 -2 305q-2 106 -2 194v31q-2 -4 -4 -6q-55 -104 -121 -219q-63 -115 -135 -213q-66 -94 -115 -148z" />
<glyph unicode="5" horiz-adv-x="745" d="M29 1360q-2 45 10 67q14 29 57 35q27 2 76 2q47 2 109 4q61 4 151 14.5t170 20.5l78 10q14 0 24.5 -8t12.5 -22.5t-7.5 -24.5t-21.5 -12l-80 -10q-78 -8 -168 -21q-92 -10 -155 -14q-63 -2 -113 -4q-45 0 -70 -2l-4 -2q-2 -10 -2 -31q2 -37 4 -105.5t2 -181.5v-213 t2 -166v-37q20 33 62 95q43 66 76 108q35 45 86 84q57 45 100 43q43 0 98 -41q53 -37 84 -78q29 -43 58 -135q27 -94 26 -166q-2 -70 -17 -141.5t-54 -161.5t-75 -133t-79 -72q-47 -31 -96 -34q-49 -6 -113 22q-61 29 -86 53q-27 29 -33 52l-4 14q-4 12 3 24.5t20.5 16.5 t26 -3t16.5 -20l4 -14q2 -8 14 -20q16 -16 68 -41q45 -20 78 -19q33 4 65 25q33 25 62.5 59.5t66.5 118.5t50.5 147.5t15.5 128.5q0 61 -25 144q-25 84 -47.5 115.5t-67.5 64.5q-39 27 -59 27q-20 2 -59 -29q-45 -35 -74 -72q-31 -41 -72 -104q-43 -61 -61 -94 q-20 -35 -43 -66q-31 -49 -66 -20q-16 12 -16 49v110q-2 66 -2 166v213t-2 180q-2 68 -4 105z" />
<glyph unicode="6" horiz-adv-x="677" d="M31 684q6 129 32 264q27 133 56 269q31 139 47 172l12 28q6 12 20.5 16.5t27 -2t16.5 -19.5t-2 -26l-15 -28q-12 -25 -41 -156q-29 -135 -53 -266q-27 -131 -33 -254q-6 -125 4 -195q8 -68 39 -153q16 -45 37 -80q37 96 68 166q31 76 84 162q53 88 89 123.5t68 56.5 q47 27 93 0q41 -23 61 -88q16 -59 4 -152q-14 -92 -55 -180t-101 -149q-57 -61 -102 -89q-51 -31 -117 -14q-34 10 -67 33q-16 -45 -29 -78q-23 -68 -24 -90l-5 -27q0 -12 -11 -21t-25.5 -7t-22.5 13t-6 24l2 26q4 31 29 103q16 47 39 110q-41 51 -72 135q-33 92 -43 168 t-4 205zM227 190q29 -27 60 -34q37 -8 65 8q37 20 90 76q51 53 88 131q35 80 48 159q10 78 -3 125q-12 39 -28 50q-12 6 -25 0q-25 -16 -55.5 -47t-79.5 -111q-49 -82 -80 -154t-69 -176q-7 -13 -11 -27z" />
<glyph unicode="7" horiz-adv-x="919" d="M31 1266.5q-4 13.5 2 26t18 16.5l15 6q16 6 73 24q57 20 152 56q94 33 166 55q70 23 106 37q41 12 80 18q57 8 88 -49q23 -43 19 -106q-4 -92 -9 -156q-4 -102 -9 -239.5t-5 -270.5q0 -45 2 -86v2q39 0 88 -2l45 -4q12 -2 21.5 -12.5t8.5 -23.5t-11.5 -22.5t-24.5 -9.5 l-45 4q-43 2 -78 2q-2 0 -4 -2q0 -33 2 -61q4 -78 12 -174q8 -98 13 -164l6 -102l4 -37q0 -14 -9 -24.5t-22.5 -11.5t-25 8t-11.5 22l-4 39q-2 37 -6 102.5t-12 161.5t-12 178q0 27 -2 59h-15q-47 -4 -78 -10l-32 -8q-12 -2 -24.5 5t-15.5 20.5t4 25.5t21 14l33 9 q35 8 86 12h21q-2 41 -3 90q0 135 5.5 272.5t9.5 241.5q4 61 10 156q2 45 -12 71q-8 14 -19 13q-33 -4 -67 -17q-39 -12 -109 -35q-72 -23 -164 -55q-92 -35 -151 -55q-57 -20 -74 -25l-14 -6q-12 -4 -25.5 2t-17.5 19.5z" />
<glyph unicode="8" horiz-adv-x="577" d="M31 240q-4 35 0 88t10 88q8 33 16 65q10 35 23 68q14 33 37 76q25 43 39 63.5t28 36.5q16 20 43 29l15 6q18 16 37 37q8 10 18 22q-12 27 -27 55q-31 66 -49 108t-35 81q-16 43 -26 82q-10 35 -25 88q-14 59 -12 96q4 37 27 82q25 43 48 66.5t58 44.5q39 25 70 24 q33 2 71 -16q39 -18 70 -55t49 -89q16 -45 27 -79q10 -39 6 -95q-4 -53 -29 -127q-25 -70 -47 -118q-23 -51 -65 -113q-15 -22 -33 -45q4 -8 8 -14q18 -43 37 -86q18 -45 33 -88q16 -43 30 -107q16 -63 18.5 -105t-1.5 -83t-25 -99q-18 -57 -37 -90q-20 -35 -55 -74 q-37 -41 -66 -55q-29 -12 -61 -14q-33 -2 -61 10q-27 10 -62 41q-37 29 -56.5 58.5t-29.5 66.5q-12 35 -16 70zM97 248q3 -29 14 -58q8 -27 22 -49q14 -23 42 -45t46 -30q14 -6 33 -5q16 0 33 9q18 8 45 39q31 35 47 61q16 29 33 80q18 49 20 82q4 35 2 71.5t-16 94.5 q-14 59 -29 100q-14 43 -33 84l-28 70q-39 -43 -68 -70l-27 -25q-10 -10 -24 -10l-33 -55q-23 -39 -33 -68q-12 -31 -20 -61q-8 -31 -17 -62q-6 -29 -8 -77q-4 -47 -1 -76zM190.5 1322.5q-2.5 -24.5 10.5 -71.5q14 -53 24 -90q8 -35 25 -71q14 -39 32.5 -80t49.5 -107 q6 -14 10 -24q6 8 10 14q39 55 60 100q20 47 43 115q23 66 26 111q2 43 -4 71q-8 31 -24 74q-14 39 -37 66t-47 38q-25 12 -39 11q-14 0 -39 -15q-27 -16 -45 -34q-18 -16 -35 -52q-18 -31 -20.5 -55.5z" />
<glyph unicode="9" horiz-adv-x="710" d="M31 979q8 59 43 143q35 82 76 144q41 61 94 108q51 45 86 66q39 23 90 26q51 4 82 -4q29 -8 77 -42t64 -58l14 -19q8 -12 5 -25.5t-13 -21.5q12 -12 17 -34q10 -37 14 -97q4 -57 2 -149q0 -90 -4 -200.5t-9 -219.5t-8.5 -203t-3.5 -164v-118v-70l-2 -23q-2 -14 -12 -23 t-23.5 -8t-23.5 11t-8 25l2 22v66v118q0 70 3 165t8 204t9 219.5t4 200.5q2 63 0 110q-16 -45 -36 -96q-31 -74 -72 -141q-39 -70 -72 -109q-33 -37 -80 -82q-51 -51 -100 -67q-59 -18 -109 20q-41 31 -63 70q-23 37 -41 115q-18 80 -10 141zM98 971q-6 -49 11 -117 q14 -70 32 -96q16 -29 45 -51q23 -16 47 -9q33 10 74 50q45 45 76 79q29 33 66 97q37 66 65 135q29 70 46.5 122t25.5 83q6 26 20 34q-2 4 -4 7l-14 18q-10 14 -48 42t-59 32q-16 6 -55 2q-37 -2 -61 -17q-31 -18 -76 -59q-47 -39 -84 -94q-37 -57 -70 -133 q-31 -76 -37 -125z" />
<glyph unicode=":" horiz-adv-x="133" d="M29 999.5q0 14.5 10 23.5t23.5 9t23.5 -8l6 -6q10 -10 10 -24.5t-10 -23.5t-23.5 -9t-23.5 8l-6 6q-10 10 -10 24.5zM33 544.5q0 14.5 9 25t23.5 10.5t24.5 -11l6 -6q10 -10 10 -24.5t-10 -23.5t-24.5 -9t-22.5 8l-6 8q-10 8 -10 22.5z" />
<glyph unicode=";" horiz-adv-x="307" d="M29 -300q0 13 10 24l14 12q10 10 60 69q45 59 82 156q31 90 8 148q-27 72 -35 102l-8 29q-4 14 3 26.5t20.5 15.5t25.5 -4.5t16 -19.5l6 -31q8 -27 35 -94q33 -82 -8 -194q-39 -106 -94 -175q-49 -66 -66 -79l-14 -13q-10 -8 -23.5 -7t-22.5 11.5t-9 23.5zM76 620.5 q0 14.5 9 24.5t23.5 10t24.5 -10l6 -6q10 -10 10.5 -24.5t-10 -23.5t-25 -9t-22.5 8l-6 6q-10 10 -10 24.5z" />
<glyph unicode="=" horiz-adv-x="985" d="M29 481.5q0 14.5 10 23.5t22 9h29q27 0 68 4q43 2 161 6q119 6 213 13q94 6 244 -2l150 -9q12 0 22 -11t9 -24.5t-11 -22.5t-24 -9l-148 8q-147 8 -237 2q-94 -6 -213 -12q-121 -4 -162 -6q-43 -4 -72 -5h-29q-12 0 -22 10.5t-10 25zM51 767q-2 13 6.5 24.5t22.5 13.5 l45 6q47 6 209 14q160 8 282 13q123 4 170 4h50q14 0 23 -10.5t9 -23.5t-9 -23.5t-23 -10.5h-50q-47 0 -168 -4t-282 -12q-158 -6 -203 -13l-45 -6q-12 -2 -23.5 6.5t-13.5 21.5z" />
<glyph unicode="?" horiz-adv-x="669" d="M29 1186l4 24q4 33 45 93q39 57 141 124q106 74 221 56.5t168 -82.5q57 -70 19 -174q-35 -94 -150 -180q-109 -84 -201 -129q-80 -41 -112 -89q-31 -45 -33 -94q0 -49 16 -73l21 -33q8 -12 5 -25.5t-14.5 -22t-25.5 -5t-22 15.5l-21 33q-27 41 -27 112q2 70 46 131 q41 61 139 109q86 43 188 123q98 74 127 151q25 68 -8 107q-35 45 -124 58.5t-175 -44.5q-90 -61 -123 -108q-31 -45 -33 -64l-4 -24q-2 -14 -13 -22.5t-25.5 -6.5t-22.5 13t-6 26zM287 139.5q0 14.5 10 24.5t24.5 10t22.5 -10l6 -6q10 -10 10 -24.5t-9 -24t-23.5 -9.5 t-24.5 9l-6 8q-10 8 -10 22.5z" />
<glyph unicode="@" horiz-adv-x="970" d="M31 610q8 109 57 205q49 92 94 137q43 45 117 97q78 51 156 71t133 13q55 -8 122.5 -50.5t116.5 -105.5q49 -61 80 -140t35 -130t-14 -121t-62 -125q-43 -53 -75 -78q-35 -29 -89 -45q-61 -18 -100 2q-33 16 -67 61q-33 47 -43 82q-8 33 -11 82v4q-12 -12 -26 -24 q-39 -37 -70 -62q-31 -27 -78 -49q-55 -27 -86 -16q-37 14 -43 69q-4 43 10 80q14 35 56 84q41 49 98 94q59 49 92 60l29 8q12 4 24.5 -2t17.5 -19.5t-2 -25.5t-20 -16l-26 -9q-23 -8 -72 -47q-51 -43 -88 -86t-45 -65q-10 -20 -6 -47q0 -6 2 -13q10 2 28 13q41 18 66 39 q29 23 66 59q37 33 49 51q12 20 18 35q18 27 33.5 18.5t28.5 -30.5l10 -25q0 -33 2 -76q0 -41 8 -65q6 -25 33 -60q25 -33 43 -43q14 -8 49 4q43 12 68 33q27 20 63 68q35 43 49 100q16 57 12 98q-2 41 -29.5 110t-70.5 124q-41 53 -97 88t-98 41t-108 -10t-133 -62 q-70 -47 -107 -86q-39 -39 -81 -125q-45 -82 -52 -176q-6 -96 8 -149q16 -55 64 -133q43 -74 100.5 -126.5t96.5 -70.5q35 -18 92 -14q59 4 88 16l37 16q12 4 25.5 -1t18.5 -17t0 -25.5t-18 -19.5l-35 -14q-41 -18 -112 -23q-76 -4 -125 21q-47 25 -111.5 82t-115.5 143 q-49 82 -68 147q-20 66 -12 172z" />
<glyph unicode="A" horiz-adv-x="628" d="M31 -4l18 47q16 43 41 154q25 113 54.5 227.5t62.5 230.5q31 115 59 226q29 109 51 202q23 94 35 142q10 47 31 104q16 53 27 88q8 37 12 51q7 24 19 24q19 0 51 -60q4 -10 4 -11q4 -53 6 -121t6 -165q4 -96 20 -205q16 -111 27 -185q4 -39 10 -96q27 2 35 -24 q2 -14 -4 -26.5t-21 -14.5l-6 -2q2 -27 2 -54q8 -143 11 -198q0 -53 4 -150q2 -96 2 -129q2 -35 4 -86q1 -26 1 -42t-1 -23v-13q0 -14 -10.5 -23t-24.5 -9t-23.5 11t-9.5 23v15q2 10 0 59q-2 51 -4 84q0 35 -3 131t-4 150.5t-7 195.5q-2 20 -4 39l-31 -8q-100 -29 -158 -53 q-55 -23 -65 -33l-17 -12q-4 -4 -10 -6q-6 -20 -10 -43q-29 -113 -55 -230q-27 -113 -45 -160l-17 -47q-6 -12 -18.5 -17t-25.5 -1t-18 17.5t-1 25.5zM246 547q14 6 41 16q61 29 168 58l43 10q-4 63 -11 104q-10 74 -26 187q-16 111 -21 208q-4 80 -6 140q-10 -33 -16 -62 q-12 -47 -35 -141q-23 -92 -51 -203q-29 -113 -60 -227q-14 -45 -26 -90z" />
<glyph unicode="B" horiz-adv-x="1120" d="M31 201q-4 14 2 26.5t19.5 16.5t25.5 -3.5t16 -19.5l17 -55q14 -43 88 -103q78 -59 153 -71h4v6v49v62q-2 33 -2 96q-2 66 -2 110v127q-2 74 -2 142v307v110q-6 12 -4 25l2 18q2 2 2 7v92q-2 68 -6 125t-8 104l-4 51q-2 12 7 23.5t23.5 12.5t24.5 -8t12 -24l4 -49 q4 -49 9 -106q4 -47 4 -105q41 57 100 119q76 80 164 125q75 37 129 38q14 0 27 -3q74 -14 84 -103q1 -8 1 -16q0 -74 -79 -199q-82 -129 -187 -241q-8 -10 -16 -19q29 10 57 15q33 5 66 6q43 0 84 -10q74 -18 149 -78q82 -61 95 -135q2 -15 2 -31q0 -65 -37 -158 q-47 -113 -104.5 -196.5t-159.5 -171.5q-104 -90 -228 -144q-82 -35 -147 -41q-10 -12 -25 -12q-14 0 -24 10q-12 2 -25 2q-92 14 -184 86t-111 137zM418 584q0 -61 1 -140t1 -127q0 -47 1 -111.5t2 -96t1 -60.5v-51v-4q51 8 113 33q115 49 208 131q96 86 149.5 162.5 t96.5 181.5q33 80 33 129q0 12 -2 22q-8 47 -68 95q-66 51 -124 65q-31 8 -64 8q-29 0 -59 -6q-66 -10 -152 -55q-39 -20 -70 -39q-4 -2 -6 -6q-47 -37 -61 -45v-86zM418 760l28 16q31 25 64 58q45 43 96 98q100 109 178 233q68 108 68 162v8q-4 39 -31 45q-6 1 -12 1 q-37 0 -98 -31q-78 -39 -146 -111q-70 -72 -108 -135q-27 -41 -39 -66v-24v-123v-131z" />
<glyph unicode="C" horiz-adv-x="628" d="M31 598q4 76 26 193q20 115 41 190q20 76 74 209q55 135 86 176q29 39 66 72q39 38 74 38q5 0 10 -1q39 -6 59 -39q16 -27 27 -54q6 -23 18 -55q12 -35 20 -59l9 -23q6 -12 0 -25.5t-19.5 -17.5t-26 2t-18.5 19l-8 22q-8 23 -20 58t-21 59q-6 18 -16 37q-6 6 -15 8 q-8 0 -28 -18q-31 -31 -58 -64q-25 -33 -75 -160q-53 -129 -72 -200q-20 -74 -41 -187q-21 -112 -25 -184q-2 -31 -1 -67q0 -48 3 -105q8 -98 33 -191q25 -90 41 -112q14 -23 43 -41q20 -12 47 2q39 20 68 49q29 27 70.5 87t70.5 126q31 70 39 98q10 33 16 54l7 22 q4 14 16 20.5t25.5 3.5t20.5 -16.5t3 -25.5l-6 -23q-6 -23 -16 -53q-10 -35 -43 -107q-31 -74 -77 -138t-79 -97q-35 -33 -84 -60q-30 -16 -58 -16t-55 16q-41 25 -65 60q-23 35 -49 135q-27 96 -33 203q-5 69 -5 126q0 29 1 54z" />
<glyph unicode="D" horiz-adv-x="911" d="M31 82q-4 12 1 25.5t17 18.5t25.5 0t19.5 -20l6 -14q6 -10 37 -33q35 -27 84 -39q26 -6 53 -6q16 0 33 2v4q-2 39 -3 74t-3 92q0 59 -2 103v119q-2 72 -2 159q0 84 -1 140.5t-1 146.5t-2 147q0 57 -11.5 180.5t-21.5 184.5q-10 63 -12 90l-2 25q-2 14 7 24.5t23.5 11.5 t24.5 -8.5t12 -23.5l2 -23q0 -25 13 -84q8 -47 14 -127q37 45 158 135q104 79 190 79q46 0 86 -23q109 -63 109 -297v-25q-6 -238 -56 -461q-49 -223 -110 -348q-63 -125 -130 -197.5t-128 -109.5q-43 -25 -84 -39v-6v-22q2 -14 -8.5 -24.5t-23.5 -10.5t-23.5 9t-12.5 23v15 q-18 -2 -35 -2q-35 0 -69 8q-61 16 -109 51q-49 37 -59 60zM352 1135q8 -86 8 -131q2 -57 2 -148q0 -90 3 -147v-142q0 -86 2 -159q0 -76 1 -118t1 -102q2 -59 2 -92q2 -28 2 -59q27 10 53 26q53 31 113.5 96.5t117.5 182.5t107 332q47 217 53 448v21q0 197 -74 239 q-25 15 -56 15q-63 0 -148 -64q-137 -102 -154 -141l-23 -45q-4 -8 -10 -12z" />
<glyph unicode="E" horiz-adv-x="858" d="M31 565.5q4 14.5 16 20.5l16 8q-2 59 -4 143q-1 33 -1 65q0 73 4 144q4 103 10 174q8 72 14 115q6 47 12 68q8 27 35 49t57 26q23 4 80 13q57 6 101 14q43 6 112 25q72 18 133 26q57 8 86 10q27 2 58 7l33 4q12 2 23 -6.5t13 -21.5t-6 -24.5t-22 -13.5l-31 -4 q-33 -6 -61 -8q-27 -2 -84 -10q-55 -8 -125 -25q-72 -18 -119 -27q-45 -8 -102 -14q-55 -6 -76 -10q-14 -2 -25.5 -12.5t-13.5 -18.5q-6 -14 -12 -55q-6 -43 -13 -113q-6 -70 -10 -171q-3 -67 -3 -136q0 -34 1 -68q0 -63 2 -112q45 23 102 49q80 39 109 45l25 6q14 2 25 -5 t14.5 -20.5t-4 -25.5t-19.5 -14l-25 -7q-23 -4 -96 -41q-76 -35 -129 -61q4 -63 8 -147q4 -94 8.5 -170t5.5 -127.5t3 -83.5v-13q8 2 18 6q33 12 84 23q47 12 100 22t101 23l47 14q12 2 24.5 -5t16.5 -20.5t-3 -25.5t-22 -14l-47 -15q-49 -12 -102 -22q-53 -12 -101 -23 q-47 -10 -75 -20q-31 -12 -52 -18q-16 -4 -36.5 7t-20.5 36v45q-2 31 -2 81q-2 49 -6 125q-4 78 -8 170q-4 68 -6 121q-23 -1 -33 17q-6 12 -2 26.5z" />
<glyph unicode="F" horiz-adv-x="626" d="M29 88v90q2 59 6 131q6 70 7 121t1 137v147.5t6 192.5q5 88 5 157q0 23 -1 44q0 86 -2 166q-2 53 -2 86q-8 6 -12 16q-8 25 14 39v12q2 14 12.5 24.5t22.5 8.5q25 0 31 -22l8 2q63 18 121 41q59 23 120.5 37t106.5 18t70 4h22q14 0 24.5 -9t10.5 -23.5t-10 -24.5t-23 -10 h-24q-20 0 -64 -5q-41 -4 -97 -17t-112 -34q-61 -23 -127 -43l-26 -8q0 -35 2 -92q2 -80 3 -166v-25q0 -78 -5 -178q-4 -104 -6 -164l39 29q61 45 116 86t105 68l49 26q12 6 25.5 2t19.5 -15t3 -25.5t-15 -20.5l-50 -27q-45 -25 -98 -63q-53 -39 -115 -86l-61 -45 q-8 -6 -18 -6v-46v-51q0 -88 -2.5 -139t-6.5 -123t-6 -129v-84q2 -29 2 -61v-33q0 -14 -9 -23.5t-23.5 -10.5t-24.5 9.5t-10 24.5v33q0 31 -2 57z" />
<glyph unicode="G" horiz-adv-x="632" d="M31 580q4 127 32 256q29 129 76 247q47 121 96.5 198t90.5 120t71 63q27 18 49 18q20 0 35 -14l13 -10q10 -10 11 -23.5t-7.5 -24.5t-22.5 -12t-24 9l-9 4q-2 -2 -8 -4q-25 -16 -59 -53q-37 -39 -83 -109.5t-89 -185.5q-45 -115 -74 -238q-27 -123 -33 -243 q-1 -21 -1 -41q0 -95 16 -168q16 -90 34.5 -126t40.5 -61q20 -20 56 -28q33 -8 53 4q31 18 59.5 48t64.5 94.5t50 113.5q14 51 20 92t11 67l4 29q4 29 33 29q-2 66 -13 94q-10 0 -28 -6q-55 -18 -125 -53q-74 -39 -115 -58l-41 -18q-12 -4 -25.5 1t-18.5 17.5t0 25.5t17 19 l41 17q39 18 109 55q76 39 135 59q28 8 49 8q49 0 66 -42q14 -39 16 -119q1 -31 1 -71q0 -59 -2 -136q-3 -129 -9 -223q-8 -94 -10 -152l-4 -59q0 -14 -11.5 -23.5t-25 -8.5t-22.5 11.5t-9 24.5l4 57q2 59 10 154q6 84 9 196v-6q-16 -55 -56.5 -127.5t-75 -108.5t-71.5 -59 q-30 -18 -64 -18q-21 0 -43 6q-55 14 -88 49q-29 31 -51.5 75t-42.5 142q-13 74 -13 164q0 30 1 62z" />
<glyph unicode="H" horiz-adv-x="628" d="M29 1425l2 27q0 12 10 22.5t23.5 9.5t23.5 -11.5t10 -24.5l-2 -25q0 -23 4 -90q4 -72 19 -188q14 -119 22 -223q8 -90 13 -181q16 6 39 13q66 23 151 51q74 23 115 37q0 16 -2 32q-4 66 -8.5 134.5t-10.5 156.5q-6 90 -6 211v121q0 14 9.5 24.5t23.5 10.5t24.5 -10.5 t10.5 -24.5v-121q0 -119 6 -207t10 -149q4 -74 8 -141q0 -10 2 -21q12 2 25 -2l12 -4q14 -2 21.5 -14.5t3.5 -25.5t-16.5 -20.5t-26.5 -3.5l-10 3h-5q2 -20 5 -43q6 -68 16 -134q8 -70 16 -159q10 -92 14.5 -142.5t6.5 -97.5q4 -45 8 -84l4 -78l2 -39q0 -14 -9 -24 t-23.5 -10t-24.5 9t-10 23l-3 39q-2 37 -4 76q-4 37 -6 84q-4 45 -8 95t-14 143q-8 90 -17 157q-8 68 -14 135q-2 14 -4 31q-39 -12 -100 -33q-86 -29 -152 -49q-33 -10 -55 -18q4 -78 6 -152q2 -94 4 -170v-137v-104q0 -41 2 -66v-23q0 -14 -10 -24t-23.5 -10t-24 9 t-10.5 23v25q-2 23 -2 66v104v135q-2 78 -4 170q-2 63 -4 131q-23 1 -31 21q-4 12 1.5 25.5t17.5 17.5l8 4q-6 98 -14 198q-8 104 -23 222q-14 121 -18 190q-4 72 -4 98z" />
<glyph unicode="I" horiz-adv-x="747" d="M32 1370q-5 12 0 25.5t17 19.5l68 31q70 31 153 57q86 29 109 33l20 4q14 2 25.5 -7t13.5 -22.5t-6 -24.5t-22 -13l-21 -5q-10 0 -57 -16q8 -8 8 -20l2 -29v-80v-129q-2 -78 -2 -184t1 -179t3 -178q2 -104 12 -221t17 -176q4 -61 6 -102q2 -31 4 -56q52 4 104 5 q17 0 35 -1q88 -2 127 -4l39 -2q12 0 21.5 -11t9.5 -24.5t-11.5 -22.5t-23.5 -9l-39 2q-37 2 -125 4q-18 1 -37 1q-55 0 -110 -5q-10 -8 -23 -11q-10 0 -18 7q-78 -8 -113 -17q-43 -12 -82 -24l-41 -13q-12 -4 -24.5 2.5t-16.5 19.5t2 25.5t19 16.5l41 14q41 12 84 23 q41 12 114 18q-2 25 -2 58q-4 41 -8 98q-6 66 -16 180q-10 119 -13 223q-2 104 -3 177t-1 180.5t2 185.5v129v78l-2 29v4q-70 -25 -127 -50l-69 -30q-12 -6 -25.5 -1t-18.5 17z" />
<glyph unicode="J" horiz-adv-x="571" d="M33 287q-4 36 -4 66q0 38 6 65l10 45q4 12 15.5 20.5t24.5 5t21.5 -15.5t4.5 -24l-11 -46q-4 -19 -4 -46t4 -62q6 -68 43 -117q35 -45 119 -67q27 -6 49 -6q45 0 74 24q47 39 76 174q16 79 16 163q0 66 -10 136q-25 164 -46.5 300t-43.5 274q-20 139 -25 219l-4 80 q0 14 9.5 24t22.5 11t23.5 -9t12.5 -22l4 -80q4 -78 24 -213q20 -137 43 -275q23 -135 45 -299q11 -76 11 -148q0 -89 -17 -173q-33 -160 -98 -215q-48 -39 -116 -39q-31 0 -66 8q-109 29 -156 94q-47 63 -57 148z" />
<glyph unicode="K" horiz-adv-x="878" d="M31 1481q-4 12 2 24.5t19.5 16.5t25.5 -2.5t16 -20.5l10 -33q12 -39 19 -118q4 -78 6 -150q2 -70 4 -174q2 -102 12 -205q10 -86 19 -168q10 10 20 25q31 33 67 77t75 94t76.5 101t73.5 100.5t65.5 88.5t57.5 72.5t79 97.5l51 63q8 12 22.5 13t24.5 -7t12.5 -22.5 t-6.5 -24.5l-51 -63q-51 -63 -80 -99q-27 -33 -56.5 -71.5t-65 -86.5t-72.5 -99.5t-78 -104.5q-39 -49 -76 -95t-67 -79q-31 -35 -50 -58q-8 -10 -12 -18q2 -37 4 -72q12 -12 27 -26q23 -23 55 -56q33 -31 72 -65.5t86 -71.5q45 -35 94 -67.5t98 -59.5q47 -25 90 -39t78 -18 l41 -4q14 0 23.5 -11.5t8.5 -24.5t-12.5 -22.5t-25.5 -7.5l-41 2q-43 4 -92 23q-49 16 -102 43q-51 29 -103.5 62.5t-99.5 72.5q-47 37 -88 73t-74 68q-16 14 -31 29q2 -59 2 -111v-102v-66l2 -34q0 -14 -10 -24.5t-23.5 -10.5t-23.5 10t-10 23l-2 34v68v102q0 70 -4 160v21 q-10 10 -21 20q-19 18 -19 39q0 13 7 27q8 16 20 34l2 2q0 18 -2 37q-10 98 -22 201q-10 104 -12 209q-2 104 -5 174q-2 72 -6 147q-6 72 -14 103z" />
<glyph unicode="L" horiz-adv-x="688" d="M31 1288q-2 46 -2 81t2 58l4 46q0 14 11 23t24.5 8t22.5 -12t7 -26l-2 -45q-2 -22 -2 -54t2 -75q4 -90 8 -233q4 -141 13 -258q6 -115 10 -226q3 -74 3 -140q0 -33 -1 -64q-2 -96 -4 -172l-3 -114t-1 -79v-57q6 2 8 2q47 16 80 29q35 14 101.5 40.5t131.5 57.5 q68 31 105 47q39 14 53 18l14 4q12 4 24.5 -2t17 -19t-2 -25.5t-20.5 -16.5l-12 -4q-12 -4 -48 -19q-37 -14 -102 -45q-68 -31 -135.5 -58.5t-101.5 -39.5q-35 -14 -82 -31q-2 0 -8.5 -2t-11.5 -4t-14 -4t-15.5 -2t-14.5 1t-13 5t-10.5 11.5t-7.5 17.5q-4 16 -4 37v60t1 80 l3 114t4 170q1 31 1 64q0 66 -3 138q-4 109 -10 224q-8 117 -12 260t-8 231z" />
<glyph unicode="M" horiz-adv-x="903" d="M29 1434q-2 12 7 23t21 13q16 2 29 -8q14 -6 20 -20l7 -21q6 -18 34 -69q31 -53 76 -127q45 -76 84 -152q35 -76 58.5 -124t62.5 -140q35 -80 55 -135q2 10 4 18q16 78 37 190.5t40.5 197.5t45.5 173q27 90 49 150q23 61 37 78q18 23 36 16.5t28 -20t12 -21.5 q8 -33 15.5 -125t13.5 -182q4 -90 16 -260t19.5 -296t9.5 -233q4 -102 8 -178t10 -131t8 -78l2 -22q2 -14 -7 -24.5t-23.5 -12.5t-24.5 7t-12 24l-2 22q-2 23 -8 78q-4 55 -9.5 132t-9.5 183q-2 102 -9 228.5t-19 296.5t-17 260q-6 90 -14 180q0 20 -2 39q-20 -53 -43 -129 q-25 -88 -43 -170q-20 -84 -39 -195q-20 -113 -39 -192q-16 -78 -25 -113q0 -2 -7 -9t-16 -15.5t-20.5 -12.5t-20.5 2.5t-13 24.5q-6 23 -25 80q-20 55 -59 145q-39 92 -62 140q-23 49 -59 122q-37 74 -80 148q-35 55 -60 100q2 -57 3 -133q1 -50 1 -99t-1 -97q0 -92 2 -154 t4 -150q4 -90 7 -170.5t5 -130.5q2 -47 4 -111.5t4 -115.5q0 -49 2 -84q0 -39 -2 -59l-2 -15q-2 -14 -13 -22t-24.5 -6t-23 13t-6.5 24l2 16q2 14 2 47q-2 35 -2 86q-2 49 -4.5 112.5t-4.5 112.5q-2 47 -4 129q-4 80 -8 172q-2 90 -4 150q-2 61 -2 153v197q0 100 -4 168 q-2 68 -4 88z" />
<glyph unicode="N" horiz-adv-x="897" d="M31 1374q-1 20 -1 37q0 33 5 49l6 15q10 27 39 22h2q12 6 25.5 0t17.5 -20l16 -41q14 -41 47 -111q35 -72 58 -117q25 -47 63.5 -134t62 -146.5t47 -119.5t46.5 -122q25 -61 55 -151q33 -92 51.5 -146.5t42 -124t35.5 -104.5q8 -23 19 -49q4 25 6 49q6 43 16 135 q10 94 24.5 196.5t24.5 174.5q12 72 20.5 145.5t18.5 180t15 163.5q4 57 6 127q4 70 4 100v76q0 12 9 22.5t23.5 10.5t24.5 -10.5t10 -22.5v-76q0 -31 -3 -102.5t-7 -128.5q-4 -59 -14 -165.5t-18.5 -181.5t-20.5 -149q-12 -72 -25.5 -173t-25 -194t-15.5 -136 q-6 -45 -14 -91q-8 -47 -14 -67q-12 -29 -42 -24t-36 26.5t-23 62.5q-14 41 -27.5 78t-37 106.5t-42 124t-49 144.5t-53.5 150q-25 61 -47 122q-23 59 -47 118t-62 145t-61 131q-25 47 -57 118q-16 31 -27 56q2 -33 7 -66q6 -41 8 -98q4 -53 6 -121q4 -68 6 -135 q2 -68 7 -167t8 -159.5t6.5 -117t5.5 -105.5t4 -113q2 -61 4 -96t4 -65q2 -29 3 -53.5t1 -47.5v-20q0 -14 -10 -24.5t-23.5 -10.5t-24 10t-10.5 25v20v41q-2 27 -4 55q-2 29 -4 65t-4 98.5t-4 111.5t-5 105.5t-6 117t-8.5 159.5t-7.5 167.5t-5 135t-5 122.5q-4 53 -8 92 q-6 43 -12 96z" />
<glyph unicode="O" horiz-adv-x="944" d="M31 541q4 115 22 198q16 84 86 260q72 176 140 258l65 80q16 17 41 9q23 27 51 47q29 20 51 28q23 10 58 12.5t59 -3.5q27 -6 64 -27q37 -20 61 -45q25 -20 47.5 -48t49 -77t40.5 -90q12 -37 24.5 -82t20.5 -98q5 -35 5 -87q0 -26 -1 -55q-6 -88 -30 -182 q-23 -94 -45 -156q-20 -61 -66 -147q-45 -86 -108 -152q-61 -66 -107 -98q-47 -33 -117 -63q-53 -23 -101 -23q-25 0 -48 6q-66 18 -105 49t-82 101.5t-63 171.5q-13 74 -13 157q0 27 1 56zM98 537q-1 -25 -1 -50q0 -78 14 -147q18 -88 54 -148.5t64 -82.5q29 -23 80 -37 q16 -4 33 -4q34 0 72 16q66 29 105.5 57.5t96.5 89.5q57 59 99 138q41 80 61 137t43 149q23 88 29 170q1 27 1 50q0 46 -5 77q-8 49 -18.5 91t-22.5 77t-37 79t-43 67.5t-39 42.5q-18 18 -49 34t-45 21q-16 4 -41 2t-37 -6q-14 -6 -36.5 -22.5t-41.5 -37.5l-22 -24 q-14 -18 -37 -10l-43 -52q-63 -74 -129 -239q-68 -170 -84 -250q-16 -78 -21 -188z" />
<glyph unicode="P" horiz-adv-x="952" d="M29 753.5q-2 14.5 6 24.5t22.5 12.5t24.5 -6.5l41 -28v22q-3 59 -3 119q0 30 1 61q2 92 6 187q6 94 8 160q1 30 1 52.5t-1 35.5l-2 26q0 14 9.5 24.5t23.5 11.5t24.5 -9t10.5 -23l2 -28q1 -14 1 -38t-1 -57q-2 -43 -4 -102q8 12 26 35q88 106 224 194q115 74 213 73 q22 0 43 -3q115 -18 172 -108q48 -71 47 -147q0 -18 -2 -36q-12 -90 -88 -209q-76 -117 -177 -194q-100 -76 -188 -115q-90 -39 -170 -45q-22 -1 -41 -1q-38 0 -63 5v-41q2 -84 4 -162.5t4 -148.5t3 -109t1 -88v-157q0 -14 -10.5 -24.5t-24.5 -10.5t-23.5 10t-9.5 25v157 q0 49 -2 86q0 37 -2 109q-2 63 -4 147q-2 80 -4 164q0 37 -2 70q-20 12 -41 26l-41 31q-12 8 -14 22.5zM188 956q0 -90 2 -176q1 -32 3 -63h2q24 -7 64 -7q16 0 36 1q68 4 147 39q82 37 174 108q92 70 160 176t80 180q1 11 1 22q0 59 -36 116q-43 66 -129 80q-14 2 -28 2 q-78 0 -179 -64q-125 -82 -209 -180q-74 -92 -81 -117l-5 -26q0 -45 -2 -91z" />
<glyph unicode="Q" horiz-adv-x="1081" d="M28 716v19q0 105 15 205q14 109 36.5 177.5t65.5 148.5q45 84 99 139q51 53 104 90q59 41 117 41h8q51 0 96 -23q51 -23 99 -75q45 -51 69 -97q14 -29 27 -55q4 -12 10 -22l14 -33q6 -14 1 -26.5t-19 -18.5l-4 -2q2 -10 4 -19q10 -51 17.5 -108.5t13.5 -122t6 -111.5 q1 -14 1 -30q0 -42 -4 -98q-5 -79 -20 -165q-14 -86 -43 -170v-2q33 -80 64 -145q41 -82 86 -125q18 -18 25.5 -18t13.5 8q31 35 43 90l14 63q2 14 14.5 21.5t25.5 4.5t21.5 -14.5t4.5 -25.5l-15 -63q-14 -74 -59 -121q-28 -28 -60 -28h-7q-35 3 -68 34q-53 53 -99 145 q-20 41 -40 88q-23 -43 -56 -88q-59 -88 -96 -121.5t-88 -64.5q-45 -26 -89 -26q-15 0 -30 3q-51 12 -84 43q-33 27 -75 84.5t-74 141.5q-33 84 -58 221q-25 135 -27 251zM97 716q1 -110 24 -239q23 -131 53 -207q31 -78 69 -128t62 -72q23 -20 57 -29q7 -1 14 -1 q25 0 54 17q47 27 78 55.5t86 110.5q47 68 74 133q-6 14 -11 27q-45 109 -88 203q-45 94 -65 135l-21 41q-4 12 0 25.5t16.5 19.5t26 1t19.5 -17l20 -41q20 -41 64 -136q35 -74 69 -157q12 43 19 86q14 82 19 157q4 54 4 93q0 15 -1 28q0 45 -5 108.5t-13 119t-16 102.5 q-10 49 -19.5 88t-15.5 66l-8 24q0 4 -3 8q-16 27 -43 56q-37 43 -75 61q-35 16 -74 16q-37 -2 -80 -30q-47 -33 -94 -82t-88 -123q-41 -78 -61.5 -140.5t-33.5 -164.5q-13 -96 -13 -198v-16z" />
<glyph unicode="R" horiz-adv-x="739" d="M33 758q8 23 28 26v117q0 74 -2 145.5t-4 129.5q-3 39 -3 87q0 24 1 50q0 82 2 112l4 29q0 14 11.5 22.5t25 7.5t22.5 -12.5t7 -23.5l-2 -31q-2 -27 -2 -104v-88q27 39 74 88q82 88 124 119q43 33 109 57q46 18 82 18q17 0 33 -4q41 -8 92 -43q53 -37 71 -95q7 -22 7 -45 q0 -39 -19 -83q-27 -61 -84 -135q-55 -72 -103 -119t-103.5 -90t-133.5 -88q-76 -43 -110 -60q41 -20 73 -45q35 -27 70 -62.5t90.5 -116.5t89.5 -148q33 -68 62.5 -134.5t60.5 -148.5t45 -117l17 -36q4 -12 -1 -25.5t-17.5 -19t-26 0t-19.5 17.5l-14 37q-16 37 -47 119 q-31 80 -58.5 145t-60.5 131q-33 63 -86 140t-84 109t-61 56q-27 20 -62 37q0 -33 2 -68q2 -68 4 -135q0 -66 2 -129q2 -61 4 -117.5t7 -105.5q2 -49 2 -78v-55v-29q0 -12 -9.5 -22.5t-24 -10.5t-24.5 10.5t-10 22.5v29v53q0 27 -2 76q-4 49 -6 106.5t-3 119t-3 129 t-4 134.5q-2 47 -3 93q-35 6 -35 31q0 9 5 20zM127 1049q2 -74 2 -148v-94h2q31 14 104.5 57t126 83t97.5 84t98 112q51 68 76 121q12 30 12 55q0 15 -4 27q-10 34 -45 59q-39 27 -70 33q-6 1 -13 1q-24 0 -62 -14q-55 -20 -93 -47q-37 -29 -114 -110q-76 -82 -97 -133 l-20 -54v-32z" />
<glyph unicode="S" horiz-adv-x="784" d="M39 70q-11 29 -11 62q0 36 13 75q25 74 65 108l35 31q10 8 23.5 8t23 -10t9.5 -24.5t-11 -24.5l-34 -29q-27 -25 -46 -82q-10 -29 -10 -54q0 -19 6 -36q16 -39 76 -80q61 -43 111 -51q9 -1 19 -1q45 0 104 22q76 27 114 55q37 31 86 90q49 61 66 102q11 26 11 60 q0 17 -3 35q-8 57 -33 94q-27 39 -88 100q-61 63 -112 105q-53 43 -105 88q-53 45 -121 114q-70 72 -102 121q-33 51 -47 105q-8 28 -8 55.5t8 56.5q14 55 74 131q59 72 116 113t115.5 68.5t103.5 40.5q28 9 58 10q22 0 45 -6q51 -12 78 -35q18 -16 30 -25l13 -8 q12 -8 15 -21.5t-5 -24.5t-21.5 -14t-25.5 5l-12 8q-16 10 -37 29q-14 12 -52 20q-16 4 -31 4q-19 0 -36 -6q-39 -12 -93.5 -37.5t-105.5 -62.5q-51 -35 -102 -101q-51 -63 -62 -104q-5 -20 -5 -39.5t5 -38.5q12 -45 39 -86q29 -43 92 -111q68 -68 117 -110q53 -43 105 -86 q53 -45 118 -109q66 -66 97 -110q33 -49 43 -123q3 -23 3 -44q0 -49 -16 -87q-20 -49 -75 -117q-53 -68 -99 -102q-47 -35 -133 -66q-67 -24 -122 -24q-16 0 -31 2q-66 8 -142 61t-100 111z" />
<glyph unicode="T" horiz-adv-x="964" d="M29 1367q2 13 13 22.5t24 7.5l18 -2q16 -2 41 -2q27 0 96 8q70 8 137 20q72 14 185 27q113 10 192.5 15t122.5 7l45 3q12 0 22.5 -9.5t11.5 -24t-8 -24.5t-24 -10l-43 -2q-43 -2 -123 -6q-72 -4 -172 -15q12 -10 13 -24v-39q0 -39 -5 -96q-2 -61 -3 -118.5t-1 -178.5 q2 -121 2 -203q0 -80 -4 -197q-2 -117 -3 -182t-1 -141q-2 -74 -4 -119t-2 -61l-2 -19q0 -12 -10 -22.5t-23.5 -9.5t-24 11.5t-10.5 22.5l3 19q0 16 2 61t3 119t1 139q2 66 4 184q4 115 4 195q0 82 -2 203q0 119 2 180q0 59 4 119q2 57 2 94v39q0 10 6 18q-90 -10 -147 -20 q-70 -12 -142 -23q-74 -8 -104 -8q-31 0 -49 2l-17 2q-14 2 -23 13.5t-7 24.5z" />
<glyph unicode="U" horiz-adv-x="942" d="M29 1059v37q0 124 12 200q14 88 22 121l9 33q4 12 16 19.5t25.5 4t20.5 -15.5t3 -26l-8 -31q-8 -31 -23 -115q-10 -70 -10 -187v-40q2 -145 23.5 -305t56.5 -287q33 -127 70 -195q35 -66 90 -114q41 -36 71 -35h9q39 8 98 67q63 63 102 140q41 80 78 209q39 131 60 229 q23 96 39 215q14 121 24 193q8 74 17.5 131t11.5 73q5 18 17 18q18 0 52 -46q-2 -33 -6 -90q-4 -61 -10 -156q-6 -96 -20 -248q-14 -150 -21.5 -262.5t-12.5 -235t-7 -178.5q-2 -57 -9 -94l-4 -37q0 -12 -11 -21.5t-25.5 -7t-22.5 13.5t-6 23l4 37q4 35 6 88q2 57 6 181 q6 123 12 235q2 16 5 37q-14 -55 -33 -117q-39 -135 -82 -221q-45 -86 -117 -158q-74 -74 -133 -84q-12 -2 -23 -2q-55 0 -114 54q-63 55 -105 133q-41 74 -75 207q-35 133 -56.5 295.5t-25.5 314.5z" />
<glyph unicode="V" horiz-adv-x="743" d="M30 1442.5q3 13.5 14 22t25.5 5t20.5 -15.5l10 -14q10 -16 31 -78q18 -61 49 -164q33 -106 49 -170q16 -63 41 -162q25 -96 43 -157q18 -63 45 -156q29 -92 50.5 -175t32 -129t20.5 -104q0 -6 2 -14q6 31 10 66q12 78 21 149q8 70 22 174q12 102 29 203 q14 100 27.5 194.5t27.5 180.5q10 84 23 153q10 72 14 101.5t8 60.5l4 33q2 14 12.5 23.5t24.5 7.5t22.5 -13.5t8.5 -23.5l-4 -33l-8 -66q-4 -29 -17 -100l-22 -154t-26.5 -179t-29.5 -193q-14 -102 -26 -205q-14 -102 -23 -172q-8 -72 -20 -152q-12 -82 -24.5 -130 t-22.5 -74q-2 -4 -12.5 -12.5t-24 -13.5t-25.5 0t-16 26q-2 16 -6 57q-6 39 -16.5 95t-19.5 100.5t-30.5 126t-48.5 174.5q-27 92 -45 153q-20 63 -45 162q-25 98 -41 162q-16 61 -47 166q-33 104 -51 161q-16 55 -23 64l-8 14q-8 12 -5 25.5z" />
<glyph unicode="W" horiz-adv-x="1052" d="M29 1403q0 14 9 24.5t22.5 11.5t24.5 -8.5t11 -23.5l2 -37q2 -35 19 -121q18 -94 39 -196q20 -106 37 -228q18 -119 29 -196.5t27.5 -185t32 -192.5t23.5 -128q2 -27 6 -49q16 41 29 84q14 53 37 170q23 119 39 192q14 74 43 178q29 106 53.5 191.5t35.5 120t21 67.5 q10 25 25 35q23 10 37 3t22 -17q16 -25 31 -78q14 -49 29 -96q14 -49 39 -142q25 -94 55 -196q31 -100 52.5 -166t53.5 -156q23 -66 41 -119v66q-2 109 -2 195v219v231q2 100 3 240.5t3 199.5v105v43q0 14 10.5 24.5t24 9.5t23.5 -10.5t10 -23.5v-43q0 -45 -1 -105.5 t-2 -201t-3 -238.5v-231v-220.5t2 -193.5v-154t-6 -84v-7t-1 -17t-7.5 -18.5t-16.5 -11.5t-28 3q-23 10 -23 31v2q-6 23 -13 50.5t-27.5 90t-51.5 150.5q-31 86 -52.5 152.5t-52.5 168.5q-33 102 -57 197q-25 92 -39 139q-14 49 -29 98q0 2 -2 7q-2 -10 -4 -19 q-12 -33 -35.5 -118t-52.5 -189q-27 -104 -43 -176q-14 -74 -37.5 -190.5t-39 -175t-39 -113t-33.5 -72.5q-12 -20 -42 -17t-34 29q-4 18 -8 64q-4 41 -10.5 83t-22.5 126q-16 86 -33 194q-16 106 -27.5 184t-27.5 197q-18 119 -39 225q-18 100 -37 197q-18 90 -20 129z" />
<glyph unicode="X" horiz-adv-x="874" d="M30 1438.5q3 13.5 14 21.5t24.5 5t21.5 -13l21 -31q20 -31 84.5 -134t156.5 -275q59 -115 99 -187q41 74 75 148q51 109 105.5 232.5t80 171.5t52.5 81l22 31q8 12 22.5 14t26 -7t13.5 -22.5t-6 -25.5l-25 -31q-23 -31 -45 -71q-25 -45 -78 -168q-55 -125 -106 -234 q-45 -94 -101 -190q41 -78 101 -193q61 -119 97 -182.5t67 -112.5q31 -51 51 -90q20 -37 31 -59l8 -19q4 -12 -1 -25.5t-18.5 -18.5t-26 0t-18.5 18l-8 20q-8 18 -27 53q-18 35 -49 86q-33 51 -68.5 115t-97.5 184q-45 88 -79 154q-57 -96 -138 -223q-94 -152 -131 -211 q-37 -61 -55 -96l-21 -37q-6 -12 -19 -15.5t-25.5 3t-16.5 20.5t2 25l21 36q20 37 57 99q37 59 131 213q94 150 158 258q-43 78 -119 223q-92 172 -154.5 273.5t-83.5 129.5l-20 31q-8 12 -5 25.5z" />
<glyph unicode="Y" horiz-adv-x="993" d="M29 1343.5q-2 14.5 7 25.5t23.5 12t24.5 -7l25 -22q29 -23 55 -62q25 -37 47 -78q20 -39 39 -69q20 -31 53 -90q33 -57 74 -123q43 -63 71.5 -105.5t71.5 -102.5t68 -93q18 -27 39 -54q2 10 2 15q35 131 68.5 267t60.5 253q27 119 47 180q20 59 41 117q23 59 41 88l16 27 q8 10 21.5 13t26 -4t15.5 -21.5t-5 -24.5l-17 -27q-16 -23 -35 -76q-20 -55 -41 -114q-18 -57 -45 -172q-27 -117 -60.5 -254t-68.5 -269q-10 -41 -18 -79v-2l10 -21q6 -12 1 -25.5t-17 -19.5q-6 -2 -13 -4q-10 -45 -18 -90q-25 -106 -36 -169t-23 -132q-12 -72 -21 -117 l-10 -41q-2 -14 -14.5 -22.5t-25.5 -5.5t-20.5 15.5t-5.5 24.5l11 43q8 43 20 113q12 72 23.5 133.5t33.5 171.5q14 66 33 137q-10 14 -20 35q-25 37 -49 70q-25 35 -69 95t-74 102t-71.5 109t-74.5 126q-33 57 -53 86q-20 33 -41 76q-20 37 -43 69q-23 31 -43 49l-25 21 q-10 8 -12 22.5z" />
<glyph unicode="Z" horiz-adv-x="1105" d="M31 1340.5q-4 13.5 2 25.5t18 16l62 23q63 23 189 54.5t298 60.5q156 26 226 26h14q14 0 28 -4q27 -6 43 -26q13 -17 13 -42q0 -14 -4 -30q-18 -61 -99 -199q-80 -133 -231 -416q-41 -80 -78 -149q43 12 88 20q111 25 201 33l86 10q14 0 25.5 -8t12.5 -22.5t-8.5 -24.5 t-21.5 -12l-88 -8q-84 -10 -193 -33q-74 -16 -145 -35q-68 -129 -115 -223q-86 -170 -143 -289q-31 -61 -47 -100q63 29 203 59q147 33 305 49q154 16 248 29q96 14 112 14h12q14 0 24.5 -9t10.5 -23.5t-9 -24.5t-23 -10h-15q-10 0 -102 -13q-96 -14 -252 -30 q-154 -16 -295 -47q-141 -33 -197 -58q-12 -6 -28.5 -10t-36 -4t-30.5 12t-7 39q6 35 66 158q59 117 143 289q37 74 86 165q-88 -27 -131 -43l-47 -18q-14 -4 -26.5 1t-17.5 18.5t1 25.5t18 18l47 19q51 18 158 51q20 6 41 12q49 92 108 205q154 283 232 416q78 131 92 184 q2 8 2 15q-6 2 -18 2h-8q-63 0 -220 -27q-168 -27 -290.5 -58.5t-184.5 -52.5l-61 -22q-12 -4 -25.5 2t-17.5 19.5z" />
<glyph unicode="a" horiz-adv-x="737" d="M33 223q-4 23 -4 49q0 55 18 119q25 88 47 146q23 61 73 144t103.5 146.5t104.5 108.5t100 76t90 41q27 7 50 7q16 0 30 -3q45 -12 57 -45l5 -15q4 -12 -2.5 -24t-18.5 -17.5t-25.5 1t-17.5 20.5l-4 10q-4 2 -10 4q-18 4 -47 -4q-31 -8 -72 -33q-43 -27 -90 -68.5 t-97.5 -101t-97.5 -138.5t-67 -134q-23 -55 -45 -139q-17 -59 -17 -109q0 -17 2 -33q8 -61 37 -112q25 -45 51 -53q23 -8 56 12q45 29 69 53q29 29 70 86q43 55 61 98q23 43 45 97q23 49 39 120q16 74 23 117q6 45 14 84q6 41 17 90q8 49 10 68q2 23 2 39q-8 6 8 28 q16 16 29.5 10.5t23.5 -22.5l9 -16q0 -20 -3 -45q-2 -20 -5 -46t-7 -70t-6 -81t-4 -98q-4 -61 -6 -107q-2 -47 -5 -116.5t-4 -113.5t-1 -79q0 -37 2 -74q2 -12 4 -22l6 2q12 6 25.5 0t18.5 -18.5t0 -25.5t-18 -18l-18 -8q-16 -8 -37.5 -3t-32.5 24q-12 20 -16 65 q-2 39 -2 78q0 35 2 80q0 45 2 117q2 20 2 39q-4 -14 -10 -27q-23 -51 -45 -96q-23 -49 -68 -111q-45 -61 -76 -92t-84 -64q-40 -24 -76 -24q-18 0 -36 6q-51 16 -88 84q-33 63 -43 137z" />
<glyph unicode="b" horiz-adv-x="1005" d="M29 118.5q2 14.5 13 23t24.5 6t23.5 -12.5l21 -29q18 -25 41 -36q27 -16 57 -29q10 -4 31 -6v16v52.5t-1 59.5t-1 64v344v109q-2 66 -2 141q-2 68 -3 111v112.5v126.5q0 57 -4 136q-4 76 -10 114q-5 32 -5 52q0 7 1 12v16q2 14 13.5 22.5t24.5 7.5t22.5 -12.5t7.5 -23.5 v-16q-2 -12 4 -47q6 -43 10 -123q2 -80 4 -138v-127v-112q0 -45 2 -115q0 -70 2 -135v-10q14 20 35.5 46.5t57.5 65.5t63.5 64.5t58.5 50.5t80 53q49 27 98 43q44 16 85 16q10 0 20 -1q45 -6 69 -17q29 -10 58 -41q31 -35 41 -100q6 -37 7 -73q0 -21 -3 -42q-6 -51 -17 -112 q-10 -61 -36.5 -126t-65.5 -131.5t-88 -128t-105.5 -113.5t-118 -90t-104.5 -54q-47 -16 -131 -19h-2q0 -2 2 -4v-14q0 -14 -9 -24.5t-23.5 -11.5t-24.5 9t-10 25v14q-2 4 -2 10q-33 2 -56 13q-35 14 -65 30q-35 20 -62 56l-22 28q-8 10 -6 24.5zM305 227q0 -33 1 -64.5 t1 -60.5v-51v-20h2q72 2 107 14q37 14 93 49t108.5 82t98.5 105.5t82 121t60 121.5q25 57 35 113q10 59 14 108q3 19 3 40q0 27 -5 57q-8 45 -24 63q-18 20 -33 27q-16 6 -53 10q-8 1 -16 1q-28 0 -58 -11q-43 -14 -87 -39t-73 -47q-27 -23 -53.5 -47.5t-60 -61.5t-54.5 -61 q-20 -25 -31.5 -42.5t-27.5 -53.5l-17 -37q-4 -8 -12 -15v-301z" />
<glyph unicode="c" horiz-adv-x="655" d="M29 557q2 92 10 168q6 78 22 135q18 59 54 105q35 45 59 61q29 23 70 25h8q35 0 59 -15q23 -12 47 -45q25 -31 52 -86t32 -71l7 -17q4 -12 -2.5 -24.5t-19.5 -17.5t-25.5 1t-16.5 21l-6 14q-4 14 -29 63q-25 51 -43 74t-31 31q-8 4 -29.5 3t-31.5 -9q-16 -12 -47 -49 q-27 -37 -41 -84q-14 -49 -23 -121q-6 -74 -8 -162q0 -88 2 -149t11 -142q6 -78 28 -133q23 -55 41 -80q18 -23 49 -41q23 -12 52 2q41 20 69 43q29 25 72 76q43 49 67 107q25 57 42.5 114.5t23.5 94.5l8 36q2 14 14.5 22.5t25.5 5.5t21.5 -14.5t4.5 -25.5l-6 -39 q-8 -39 -27 -99.5t-45 -123.5q-29 -63 -78 -121q-45 -57 -80 -84q-35 -31 -84 -53q-30 -14 -57.5 -14.5t-54.5 14.5q-43 27 -69 58.5t-52 97.5q-25 63 -33 149q-8 84 -10 148q-2 63 -2 151z" />
<glyph unicode="d" horiz-adv-x="765" d="M29 399q4 49 12 99q8 53 35 127q29 74 65 137q35 63 80 112q43 51 75 77t79 53t76 34q12 3 25 3q23 0 48 -9q-10 51 -14 109q-4 61 -6 98v66v55q2 27 10 65q4 25 23.5 44.5t50.5 5.5q27 -14 41 -43q10 -20 16 -56q6 -35 8 -67q2 -29 3 -60.5t1 -68.5v-97v-102v-115v-2 l5 -12q2 -14 -5 -27v-9v-9v-51q-2 -45 -2 -90q0 -37 -4 -86q2 -20 2 -29q2 -55 6 -107q4 -51 17 -118q14 -70 26 -127q14 -61 21 -93q4 -31 8 -57t4 -47l2 -18q2 -14 -7 -24.5t-22.5 -11.5t-24.5 8t-13 21v21q-2 18 -5 44t-10 54q-4 29 -18 86q-14 59 -27 131q0 2 -2 6 q-14 -41 -37 -79q-25 -39 -57 -86q-35 -49 -65 -78q-31 -27 -76 -60q-51 -33 -88 -36q-6 -1 -13 -1q-32 0 -69 17q-41 20 -66 47q-23 27 -41 59q-16 33 -39 93q-20 61 -24 108q-5 35 -5 72q0 12 1 24zM96 395q-1 -14 -1 -28q0 -28 3 -56q4 -41 25 -94q18 -53 33 -82 q14 -27 32 -47q14 -16 45 -31q27 -12 46 -12q18 4 55 29q41 29 69 53q25 23 56 66q33 45 53 81q20 35 35 72q14 35 22 92q10 57 15 119v23q0 41 -2 75q-2 53 -13 133q-10 82 -20 134q-2 8 -4 18q-20 20 -39 29q-23 8 -39 4q-20 -6 -59 -29q-41 -23 -69 -45t-67 -68 q-41 -45 -73 -102q-33 -59 -60 -129q-25 -68 -33 -113q-8 -47 -10 -92zM571 1304.5q0 -28.5 1 -63.5t6 -96q4 -53 12 -98v36v95t-1 67t-3 62q-2 27 -6 55q-2 10 -7 20q-2 -14 -2 -26v-51.5z" />
<glyph unicode="e" horiz-adv-x="638" d="M30 578.5q1 13.5 11 22.5t25 9l47 -4h8q30 0 76 12q0 14 2 27q6 158 49 252q43 98 104 141q43 29 87 30q26 0 53 -11q72 -27 92 -99q6 -20 6 -43q0 -53 -33 -116q-45 -86 -137 -150q-78 -53 -156 -82q2 -106 21 -207q25 -131 61 -194q33 -55 70 -64q4 -1 9 -1q26 0 56 40 q47 57 56 117q6 50 6 71v9l-2 18q-2 14 6 25.5t21.5 13.5t24.5 -6t13 -22l4 -21v-10q0 -28 -8 -88q-10 -78 -67 -150q-52 -64 -110 -64q-13 0 -26 3q-63 16 -110 94q-43 74 -70 217q-18 96 -22 201q-45 -10 -80 -10h-11l-47 4q-14 0 -22 11t-7 24.5zM266 641q57 23 117 64 q76 53 113 124q26 50 26 86q0 13 -4 25q-10 39 -51 55q-13 5 -26 5q-25 0 -50 -17q-47 -33 -82 -113q-37 -84 -43 -229z" />
<glyph unicode="f" horiz-adv-x="661" d="M30 748.5q3 13.5 15 21.5l43 25q45 29 125 59q33 12 66 23v114q2 102 4 191q2 90 10 151q8 63 31 107q23 45 51 63q25 17 60 17h11q41 -4 76 -33q33 -29 56 -82t24 -98l2 -41q0 -14 -9 -24.5t-22.5 -10.5t-24.5 9t-11 24l-2 39q-2 35 -19 75q-16 39 -37 58q-20 16 -39 16 q-18 2 -28 -4q-14 -8 -29 -39q-16 -33 -23 -86q-8 -57 -10 -143q-2 -88 -4 -191v-92q6 0 10 2q63 14 121 27q57 14 90 16l29 4q14 0 24.5 -8t12.5 -22.5t-7.5 -24.5t-23.5 -12l-29 -5q-29 -2 -81 -14q-55 -12 -119 -26q-12 -4 -27 -7q0 -20 2 -41q2 -100 4 -165 q0 -66 2 -158t2 -170v-137q0 -55 1 -98.5t1 -69.5v-25q2 -14 -8 -24.5t-24.5 -10.5t-23.5 9.5t-11 23.5v27q0 25 -1 68.5t-1 99.5v135q0 78 -2 170t-2 157q-2 66 -4 166q0 10 -2 21q-20 -6 -41 -14q-74 -29 -115 -54l-43 -26q-12 -6 -25.5 -3t-20.5 15t-4 25.5z" />
<glyph unicode="g" horiz-adv-x="800" d="M33 549q10 92 51 196q39 100 74 156q35 59 94 107q61 51 121 63q18 3 35 3q46 0 86 -23q49 -29 65 -66l6 -18l6 -23q6 -14 -6 -31q2 -14 2 -32q2 -55 4 -109.5t13 -144.5q12 -90 22 -166q10 -80 19 -156v-10q4 2 6 2q47 20 78 25l28 2q12 2 23.5 -7.5t12.5 -22.5 t-7 -24.5t-23 -11.5l-26 -4q-23 -2 -60 -18q-10 -4 -26 -15q2 -43 4 -90q6 -98 8 -192t2 -152q0 -63 -33 -133t-86 -107q-51 -33 -139 -34q-88 0 -137 34q-51 37 -66 113q-4 20 -4 40q0 55 29 114q35 72 119 194q25 35 49 68q-43 -39 -78 -53q-21 -9 -42 -9q-44 0 -85 39 q-51 45 -80 111q-29 61 -49 176q-15 73 -15 138q0 37 5 71zM100 541q-3 -28 -3 -60q0 -59 12 -129q20 -106 45 -162q25 -51 65 -88q29 -27 53 -16q37 14 88 70q53 57 81 113.5t40 158.5q12 104 15 182q2 82 2 168v125v53q-8 18 -39 37q-24 13 -51 13q-10 0 -21 -2 q-43 -8 -92 -48q-51 -41 -80 -90q-31 -49 -68 -145t-47 -180zM250 -328q10 -49 39 -69q33 -23 98 -23q66 0 102 25q37 25 62 78q27 57 27 106q0 55 -3 148q-2 94 -8 192q0 20 -2 45q-12 -10 -22 -20q-37 -31 -74 -72q-43 -49 -86 -113q-80 -119 -113 -186q-22 -45 -22 -86 q0 -13 2 -25zM461 172q18 18 37 33q35 29 63 49q-2 25 -4 45q-4 49 -12 102q-14 -100 -43 -159q-16 -35 -41 -70z" />
<glyph unicode="h" horiz-adv-x="622" d="M29 1518q0 12 9 23t22.5 11t24.5 -9t11 -23l2 -50q2 -49 4 -114q0 -66 1 -127.5t2 -107.5t6 -126q4 -78 10 -159q6 -82 8 -164q2 -63 6 -125q4 10 10 22q31 63 56 97q20 31 61 77q41 49 90 88q47 37 80 52q26 11 52 11l26 -3q49 -8 70 -66q14 -45 14 -92v-8 q0 -45 -19 -131q-16 -92 -34 -199q-18 -106 -25 -192q-6 -86 -7 -127v-27q0 -27 1 -53v-62v-20q2 -14 -8 -24.5t-24.5 -10.5t-24 9.5t-11.5 23.5v20v62q-1 27 -1 55v28q1 42 8 130q6 90 24 199t37 200q16 79 16 119v8q0 35 -12 70q-6 20 -14 22q-20 4 -41 -4 q-25 -10 -66 -43q-43 -33 -80 -78t-59 -73q-18 -29 -47 -88q-24 -44 -24 -66q0 -3 1 -6l4 -33q2 -12 -6 -23.5t-22 -13.5q-4 -2 -10 0q2 -6 2 -10q6 -49 12 -115t10 -114q2 -53 4 -84q2 -20 4 -49l2 -17q0 -12 -9 -23.5t-22.5 -12.5t-24.5 8.5t-11 23.5l-2 16q0 6 -1 22.5 t-1 27.5q-4 31 -7 82q-4 49 -10 113.5t-12 111.5q-6 49 -13.5 130t-9.5 163t-8 161q-6 82 -10 162t-5 126t-2 108.5t-1 126.5q-2 66 -4 112z" />
<glyph unicode="i" horiz-adv-x="233" d="M29 446.5q0 63.5 4 161.5q4 96 6 174q4 82 14 154l17 119l8 47q2 14 13 22.5t24.5 6t21.5 -13.5t6 -23l-6 -50q-8 -49 -18 -118q-10 -68 -13 -146q-2 -78 -6 -176q-4 -94 -4 -157.5t2 -147.5q2 -86 4 -129q4 -39 17 -76q2 -12 4 -13t8 1l35 6q14 2 25.5 -7t13.5 -22.5 t-6.5 -24.5t-20.5 -14l-37 -6q-31 -4 -54.5 12.5t-33.5 45.5q-14 45 -18 94q-2 45 -4 131t-2 149.5zM82 1483.5q0 13.5 9 24t23.5 10.5t24.5 -11l6 -6q10 -10 10.5 -23.5t-10 -23.5t-25 -10t-24.5 10l-6 6q-8 10 -8 23.5z" />
<glyph unicode="j" horiz-adv-x="440" d="M29 -410q0 55 20 86l14 21q6 12 20.5 15t26 -5t14.5 -21.5t-5 -25.5l-15 -20q-8 -14 -8 -50q0 -41 6 -67q6 -20 41 -53q31 -29 43 -29q14 0 37 20q27 23 41 60q18 41 31 123q14 84 18 161q1 52 1 92v37q-1 52 -3 136q-1 28 -1 56q0 55 3 110q4 82 6 135t5 125q2 74 6 137 t8 102q2 37 4 82t2 70v141q0 14 10.5 23.5t24.5 9.5t23.5 -9.5t9.5 -23.5v-141q0 -25 -2 -73t-7 -87q-4 -37 -7 -98.5t-5 -132.5q-2 -74 -4 -127.5t-6 -134.5q-3 -55 -3 -109q0 -28 1 -55q2 -82 4 -133q0 -53 -4 -134q-2 -82 -17 -170q-16 -90 -34 -137q-20 -53 -62 -86 q-39 -35 -78 -37h-3q-40 0 -87 47q-49 45 -59 84q-10 35 -10 86zM334 1308.5q0 14.5 10 23.5t24.5 9t24.5 -10l6 -6q8 -8 8.5 -22.5t-9 -24.5t-24 -10t-24.5 10l-6 6q-10 10 -10 24.5z" />
<glyph unicode="k" horiz-adv-x="614" d="M33 367.5q-10 23.5 0 40.5q10 18 41 59q6 8 14 16q0 14 -2 29v119v129v143q-2 72 -2 141v113q0 41 2 96v101.5v81.5q0 33 -4 69l-4 41q0 12 8 23.5t22.5 12.5t24.5 -7t12 -23l5 -39q4 -41 4 -77v-81v-102q-2 -55 -2 -96v-113q0 -70 2 -141v-147.5v-124.5v-66 q43 51 90 111q49 63 78.5 101t64.5 91q39 53 76 103q37 49 49 67l12 19q8 12 22.5 14t26 -5t13.5 -21.5t-4 -24.5l-15 -21q-14 -18 -51 -69q-37 -47 -74 -101q-37 -53 -65.5 -92t-79.5 -103.5t-96 -117.5q-25 -31 -45 -55v-70q4 -2 12 -8q31 -20 51 -47q20 -25 49 -74 q27 -47 50.5 -83t60.5 -85q33 -47 59 -63q23 -16 47 -17h33q14 0 23.5 -10t9.5 -24.5t-10.5 -23.5t-24.5 -9h-33q-43 0 -82 26q-37 25 -77 80q-37 51 -61.5 89t-53.5 87q-25 43 -41 64q-4 6 -10 10v-45q2 -57 2 -106v-82q0 -31 1 -65t1 -48l2 -12q0 -14 -10.5 -24.5 t-23.5 -10.5t-23.5 9t-10.5 24l-2 12q0 14 -1 49t-1 66v80q0 51 -2 108v82q-12 0 -22 2q-25 2 -35 25.5z" />
<glyph unicode="l" horiz-adv-x="202" d="M29 211v160q2 84 2 176v153v156.5t2 182.5t2 137q0 47 2 102t4 108q2 55 4 80l2 23q0 14 11.5 22.5t24.5 7.5t22.5 -12.5t9.5 -23.5l-2 -23q-2 -23 -4 -76t-4.5 -107t-2.5 -102.5t-2 -136.5t-2 -181v-157v-153q0 -92 -2 -178v-158q0 -70 10 -113q6 -33 25 -45l29 -20 q12 -8 14 -21.5t-6 -25t-21.5 -14.5t-25.5 5l-29 21q-39 29 -51 86q-12 49 -12 127z" />
<glyph unicode="m" horiz-adv-x="872" d="M29 1079v47q0 14 10 23.5t23.5 9.5t23.5 -9t10 -24v-47q0 -47 4 -114q4 -72 6 -170v-23q18 45 54 100q39 59 66.5 90t70.5 68q51 45 96 47h4q48 0 76 -43q20 -35 27 -80q4 -39 4 -110q1 -33 1 -72.5t-1 -85.5q12 51 26 96q27 82 64 136q39 55 68 75q19 15 42 15 q26 0 56 -19q49 -29 69 -90q15 -49 16 -129q0 -13 -1 -27q-6 -90 -10 -202q-6 -113 -15.5 -223.5t-17.5 -184.5q-6 -72 -13 -160q-4 -68 -5 -114q0 -16 1 -29q0 -49 7 -70l8 -22q4 -12 -3.5 -25.5t-20.5 -17.5t-25.5 3t-16.5 19l-6 25q-8 27 -10 86q-1 14 -1 31q0 49 5 118 q6 90 12 164q8 72 17.5 182.5t15.5 221.5q4 111 10 203q1 19 1 36q0 59 -11 93q-14 39 -41 55q-18 12 -25 8q-18 -14 -49 -59q-33 -47 -55 -119q-25 -76 -41 -164q-16 -90 -25.5 -185.5t-13.5 -172.5q-6 -80 -8 -115q-4 -37 -8 -57q0 -2 -1 -5.5t-3 -12.5t-7.5 -12t-15.5 -5 t-24 8q-14 6 -19.5 16.5t-5.5 17.5t2 15l2 8v109q0 72 1 127t3 153q2 94 4 191q1 48 1 89.5t-1 76.5q0 68 -4 104q-4 29 -16 51q-8 10 -21 11q-20 0 -53 -29q-41 -37 -64.5 -63.5t-60.5 -81.5q-35 -55 -53 -99q-16 -47 -29 -84q-10 -27 -4 -47l6 -31q8 -29 -20 -38 q2 -49 6 -97q6 -86 10 -145q6 -57 10 -127q6 -70 9 -127l4 -57q0 -14 -9.5 -24.5t-22.5 -11.5t-24.5 8t-11.5 24l-4 57q-2 59 -7 126.5t-10.5 126t-11.5 144.5t-10 173t-6 186q-2 98 -6 168t-4 118z" />
<glyph unicode="n" horiz-adv-x="587" d="M29 1108q0 12 9 22.5t23.5 11.5t24.5 -8.5t10 -23.5v-27q2 -25 10 -112q8 -90 11 -127q0 -33 2 -88q12 20 31 51q43 74 74.5 106.5t94.5 75.5q68 45 97 49q7 2 15 2q30 0 61 -26q33 -27 49 -64q12 -33 14 -94q0 -15 1 -31q0 -48 -5 -106q-8 -76 -12 -135 q-4 -57 -7.5 -150.5t-3.5 -150.5v-150v-194q-1 -51 -1 -85t1 -51q2 -31 17 -63l14 -39q4 -12 -1 -25.5t-18.5 -17.5t-26.5 1t-17 17l-15 39q-16 43 -20 84q-1 18 -1 52.5t1 87.5v195v149q0 59 3 153t7 154q4 59 12 135q5 56 5 100q0 15 -1 29q-2 49 -10 72q-6 18 -28 35 l-21 12q-16 -4 -70 -39q-59 -39 -85.5 -67.5t-65.5 -94.5q-41 -68 -53 -102q-6 -12 -9 -21l11 -12q6 -12 2.5 -26.5t-13.5 -20.5q-10 -8 -24 -6v-140v-452q0 -14 -9.5 -24.5t-23.5 -10.5t-24.5 10t-10.5 25v452v148t-1 142.5t-3 105.5t-10 125q-8 90 -8 116z" />
<glyph unicode="o" horiz-adv-x="620" d="M31 389q-2 27 -2 55q0 97 22 199q31 129 90 236q61 106 111 149l47 39q18 18 41 4q10 -2 16 -8l43 -37q45 -39 76 -86q33 -47 74 -164q43 -117 45 -198q0 -78 -16 -181q-20 -104 -80 -188q-57 -82 -113 -127q-52 -42 -116 -42q-10 0 -21 1q-80 8 -146 119 q-61 100 -71 229zM98 393q8 -111 62 -198q49 -80 94 -86h11q42 0 79 26q47 39 98 113q51 72 68 162q16 94 16 168q-2 70 -41 176q-39 109 -65.5 148.5t-65.5 72.5l-30 26l-27 -24q-41 -37 -96 -133q-55 -98 -84 -217q-21 -92 -21 -181q0 -27 2 -53z" />
<glyph unicode="p" horiz-adv-x="921" d="M30 132q-3 13 4 25.5t20.5 15.5t25.5 -3l16 -10q10 -6 62 -19q18 -4 38 -4t44 4q-2 10 -2 21q-6 82 -9 166v139q-2 55 -3 130t-3 132q-2 59 -2 115q0 59 4 86l4 24q2 12 14.5 20.5t26 6.5t21.5 -13.5t6 -25.5l-4 -24q-4 -20 -4 -74q0 -53 2 -113q2 -57 2 -133 q2 -39 2 -72q16 29 45 76q57 94 113.5 158.5t119.5 111.5q68 51 127 70q28 9 53 9q37 0 68 -19q49 -29 66 -66q7 -16 7 -39q0 -32 -13 -75q-20 -70 -72 -166q-49 -96 -113 -187q-63 -90 -110 -136t-131 -99q-74 -49 -144 -72q4 -41 8 -80q8 -74 15 -121q6 -47 12 -108 q6 -63 8 -121q2 -57 3 -102t3 -70v-27q0 -12 -10 -22t-23.5 -10t-23.5 9t-10 23v27q-2 25 -2 69t-3 100t-9 118q-6 61 -13 106q-6 47 -14 121q-4 35 -6 70q-26 -5 -50 -5q-28 0 -53 7q-61 14 -82 26l-16 9q-12 8 -15 21zM297 330q2 -84 8 -162v-3v-3q55 20 113 57 q78 51 120 93t103 126q59 86 109 178q47 90 67 154q10 37 10 56q0 8 -2 12q-8 18 -39 36q-16 9 -36 9q-14 0 -29 -4q-49 -16 -107 -60q-57 -45 -109 -104.5t-108 -147.5q-53 -88 -71 -131q-10 -25 -13 -35l4 -14q6 -12 0 -25.5t-20 -17.5v-14z" />
<glyph unicode="q" horiz-adv-x="864" d="M31 190q-2 20 -2 40q0 72 22 147q27 94 94 233q70 141 128.5 217t97.5 111q39 33 73 55q37 25 86 39q29 8 50 8q19 0 32 -6q29 -10 45 -30q6 -8 21 -25q25 -6 29 -31q8 -10 7 -24.5t-12 -24.5q-10 -47 -28 -100q-16 -45 -35 -99q-10 -66 -25 -145q-4 -20 -8 -43 q-25 -121 -33 -213q-8 -102 -18 -227q-2 -8 -2 -21l2 -2q59 -43 102 -86q55 -55 107 -137q53 -86 67 -170q5 -27 5 -51q0 -57 -27 -99q-35 -51 -80 -92q-44 -39 -95 -39q-11 0 -22 2q-70 10 -102 93q-29 70 -39 147q-6 43 -6 101q0 46 4 102q4 96 12 196q-74 51 -119 52h-5 q-43 0 -93 -33q-57 -37 -65 -51l-13 -21q-6 -12 -19 -15t-25.5 4t-15.5 20.5t3 25.5l12 20q4 6 13 15q-35 0 -64 20q-51 37 -59 137zM98 195q4 -68 31 -86q20 -16 53 4q8 6 17 12q43 31 98 90q72 74 115 139.5t88 169.5q16 33 26 62q27 63 41 110q4 8 6 19q2 10 5 22 q12 90 24 137q9 35 23 62q-14 16 -23 27q-4 6 -14 10q-8 2 -41 -6q-37 -10 -66 -29q-31 -20 -65 -51q-33 -31 -88.5 -101.5t-120.5 -203.5q-68 -135 -92 -224q-18 -67 -18 -130q0 -17 1 -33zM305 127q31 10 60 8q53 0 124 -41q10 123 17 211q4 47 12 101q-27 -49 -51 -89 q-45 -70 -121 -147q-21 -23 -41 -43zM537 -184q-4 -56 -4 -101q0 -51 5 -87q9 -70 33 -132q20 -47 50 -53q5 -1 9 -1q30 0 54 23q39 35 68 78q17 26 17 65q0 18 -3 38q-12 70 -59 143q-47 78 -97 127q-26 26 -63 55q-6 -78 -10 -155z" />
<glyph unicode="r" horiz-adv-x="608" d="M29 671.5q0 14.5 10 22.5v2v9q2 57 2 112q2 51 2 92q2 41 4 103l2 61q0 12 10.5 22.5t23.5 10.5t23.5 -10.5t10.5 -24.5l-2 -61q-2 -57 -4 -103q0 -39 -2 -94v-53q14 14 32 28q49 43 119 91q70 51 123 73q53 23 86 29q6 1 13 1q32 0 59 -17q35 -25 39 -54q4 -20 0 -45 l-5 -20q-2 -14 -13 -22.5t-25.5 -5.5t-21.5 14.5t-5 25.5l2 19q2 12 2 22q-2 4 -10 8q-12 8 -27 6q-23 -4 -67 -22q-47 -20 -111 -66q-68 -47 -116 -88t-72 -65l-5 -4v-80q0 -59 1.5 -98t2.5 -96.5t2 -113t2 -105.5t1 -77t2 -61v-57q0 -23 2 -37v-15q0 -14 -10.5 -23 t-23.5 -10t-23.5 9t-10.5 24v13q-2 14 -2 36.5v57.5q-2 37 -2 63q0 27 -1 76t-2 104.5t-2 113t-2 96t-1 100.5v59q-10 10 -10 24.5z" />
<glyph unicode="s" horiz-adv-x="796" d="M29 166q6 41 49 84l35 35q10 10 24.5 10t23.5 -10.5t9 -23.5t-8 -23l-35 -35q-27 -29 -31 -47q-2 -18 21 -54q27 -39 57 -57q33 -17 74 -25q20 -4 47 -4q29 0 67 4q72 6 115 29q45 20 105 64q59 41 84 69q23 29 30 51q8 25 4 46q-4 23 -38 59q-39 41 -74 69.5t-96 65.5 q-63 41 -105 66q-45 27 -96 65q-55 41 -78 74t-23 80v16q4 57 58 113q47 47 84 76q39 31 141 67q75 28 126 27q21 0 38 -4l47 -13q12 -4 19.5 -16t3 -25.5t-16.5 -20.5t-26 -3l-46 14q-9 2 -20 2q-37 0 -102 -24q-92 -35 -123 -58q-33 -27 -76 -69q-37 -39 -39 -72t10 -51 q16 -23 64 -58q49 -37 90 -63q43 -25 106 -66t101.5 -70.5t81.5 -76.5q47 -51 55 -92q3 -14 3 -28q0 -25 -9 -50q-10 -37 -43 -74q-31 -35 -96 -82q-63 -45 -115 -69q-53 -27 -137 -35q-41 -5 -75 -5q-32 0 -58 5q-52 10 -95 33q-45 27 -80 80q-33 48 -33 87q0 6 1 13z" />
<glyph unicode="t" horiz-adv-x="548" d="M29 836.5q2 13.5 12 23.5l49 39q45 39 105 74q2 33 2 65q4 74 6 135.5t4 122.5q2 63 8 119l8 53q2 14 13.5 22.5t24.5 6.5t21.5 -12t8.5 -25l-8 -53q-6 -51 -8.5 -111.5t-4.5 -124.5q-2 -61 -6 -135v-26q37 18 68 32q49 23 71 33q29 14 52 21l22 8q12 4 25.5 -3 t17.5 -20.5t-3 -26t-19 -16.5l-23 -6q-18 -6 -41 -16q-25 -12 -76 -35q-41 -18 -98 -49v-53q-4 -82 -6 -138q-2 -53 -4 -135q-1 -40 -1 -73t1 -60q2 -53 5 -101t5 -95.5t4 -90.5q2 -45 3 -84t1 -69.5t2 -46.5v-54q2 -35 2 -49v-14q2 -14 -7 -24.5t-23.5 -11.5t-24.5 9.5 t-10 22.5l-2 16q0 14 -2 49q0 35 -1 52.5t-1 48.5t-1 69.5t-3 82.5t-4.5 89t-6.5 95q-2 49 -4 104q-1 28 -1 62t1 75q2 82 4 136.5t7 136.5v5v5q-33 -20 -60 -43l-49 -41q-10 -8 -24.5 -7t-23.5 12t-7 24.5z" />
<glyph unicode="u" horiz-adv-x="653" d="M29 575v141.5t2 139.5t8 115q6 66 22 86l9 12q8 12 22 14t25.5 -6t13.5 -22.5t-6 -24.5l-10 -12q-4 -12 -9 -53q-6 -53 -8 -111q-2 -59 -2 -137v-141.5t4 -147.5q2 -86 13 -127q10 -43 30 -96q18 -47 45 -80q18 -25 33 -25q18 0 31 9q18 16 49 53q35 39 59 71 q23 33 46 91q23 59 36 104q14 47 35 123q20 76 27 121q6 47 10 92q2 43 5 81t7 83t9 63q2 16 4 29q4 25 35.5 20.5t34.5 -20.5t5 -43q0 -25 -4 -80q-2 -45 -4 -94q-4 -43 -4 -96v-29q0 -46 4 -111q4 -86 6 -141t6 -127t7 -106q0 -33 1 -61t1 -44v-18q0 -12 -10.5 -22.5 t-24.5 -10.5t-23.5 10t-9.5 23v18v43q-2 27 -2 59q-2 33 -6 105q-4 74 -6 127q-2 43 -4 104q-20 -72 -33 -116q-14 -49 -39 -111q-27 -66 -55 -104q-25 -37 -61 -78t-58 -60q-28 -24 -67 -24h-9q-45 0 -84 49q-33 41 -55 98q-23 57 -33 105q-12 49 -14 141q-4 90 -4 149z " />
<glyph unicode="v" horiz-adv-x="673" d="M29 1044q-2 12 6 24.5t21.5 15.5t24.5 -5t15 -22l4 -19q2 -16 19 -55q20 -43 49 -128t47 -142q18 -61 35 -121q14 -59 41 -150q29 -92 41 -145q10 -51 24 -92q16 -45 27 -78l2 -8q10 31 23 80q18 66 26 125q10 61 27 122q14 59 32.5 152.5t24.5 149.5q8 55 23.5 124.5 t21.5 96.5q6 29 12 49l5 20q4 14 16 21.5t25.5 4.5t20.5 -15.5t3 -26.5l-4 -21q-6 -18 -12 -47q-6 -27 -21 -96q-14 -66 -22 -121q-8 -57 -26.5 -151t-33.5 -156q-16 -57 -24 -117q-10 -61 -28.5 -131.5t-31.5 -105.5q-12 -33 -20 -58q0 -2 -10.5 -11t-23.5 -17t-26.5 -4 t-17.5 26q-2 16 -8 39t-17 55q-12 33 -26 76q-14 45 -27 101q-12 51 -39 139q-29 92 -43 153q-14 57 -32 117q-20 57 -48 142q-29 82 -47 122q-20 45 -24 68z" />
<glyph unicode="w" horiz-adv-x="776" d="M29 1044q0 14 9 24.5t22.5 11.5t23.5 -8t12 -21l4 -58q4 -59 9 -170q4 -106 20 -258t35 -272q12 -98 18 -174q8 27 19 57q33 96 65.5 192.5t65.5 202.5q31 106 45 150q6 20 10 30.5t15.5 22.5t27.5 17q7 2 14 2q36 0 52 -64q12 -41 24 -113q14 -70 38 -185.5t48 -221.5 q2 -10 6 -21q8 117 21 271q12 158 18 305q8 150 16.5 249t12.5 130l2 28q2 12 13.5 21.5t24.5 7.5t22.5 -12t7.5 -25l-5 -28q-2 -29 -10 -127.5t-15 -247t-20 -305.5q-12 -160 -22 -275q-8 -119 -16 -170v-6t-1.5 -15.5t-7.5 -16.5t-15 -11t-28 2q-12 4 -20 13.5t-9 16.5 t-2 19l-1 13q-12 63 -37 170q-25 106 -49.5 223t-36.5 186q-10 47 -19 84q-12 -45 -41 -137q-31 -106 -63 -205q-33 -96 -67 -192.5t-54 -145.5q-18 -45 -21 -57v-6t-3 -12.5t-8 -13.5t-16 -5t-26 10q-10 6 -16 15.5t-5 15.5t3 12l2 6q0 33 -4 113q-4 78 -21 199 q-16 121 -33 274q-18 152 -22 262q-4 109 -8 166z" />
<glyph unicode="x" horiz-adv-x="706" d="M31 8l12 37q14 37 45 102q29 63 59 129q29 68 80 173q37 78 74 153q-14 29 -33 64q-39 80 -83 161.5t-74 139.5q-31 55 -48 80l-14 26q-8 12 -5 25.5t15.5 20.5t25.5 4t21 -15l15 -25q16 -27 49 -84q29 -57 76 -141q43 -82 84 -162q6 -10 10 -20q41 80 68 125 q29 51 61 108q33 57 43 82q12 29 23 49l10 21q6 12 19.5 17t25.5 -1t17 -19.5t-1 -25.5l-10 -20q-10 -20 -21 -47q-14 -29 -47 -88q-33 -57 -61 -109q-29 -49 -80 -147q-4 -8 -10 -19q10 -20 20 -39q29 -53 72 -133t68.5 -126t56.5 -103q31 -59 45 -89t27 -63l10 -33 q6 -12 0 -24t-19.5 -17.5t-26 1t-18.5 18.5l-10 31q-12 31 -24.5 59.5t-42.5 83.5q-31 59 -58 104q-25 47 -67 125q-41 78 -70 131q-27 -53 -51 -108q-51 -104 -81 -171t-61 -130q-29 -61 -41 -96l-12 -37q-4 -12 -17.5 -18.5t-25.5 -1.5t-18 17.5t-2 24.5z" />
<glyph unicode="y" horiz-adv-x="761" d="M30 414v43q0 86 3 170q4 102 6 192q4 90 4 142v79q0 14 10 23.5t23.5 9.5t24 -9t10.5 -24v-79q0 -53 -5 -144q-2 -90 -6 -194q-3 -82 -3 -166v-42q1 -106 3 -161t6 -111q4 -45 11 -61q12 4 37 37q31 43 55 92q27 47 57 151q31 106 60 211q27 104 45 179q18 72 30 114 q12 41 21 66q8 25 29 31q20 6 33.5 -4.5t15.5 -24.5l2 -12q8 -35 8 -84q0 -47 -4 -113q-2 -63 -2 -116.5t2 -145.5q2 -90 2 -184q6 2 10 6q36 21 78 21q11 0 22 -1q55 -4 84 -29l21 -16q10 -10 11 -23.5t-7 -24.5t-22.5 -12t-24.5 7l-21 18q-12 10 -47 13q-33 4 -61 -13 q-16 -10 -35 -24q-4 -4 -10 -8v-27q0 -41 -2 -84q-4 -94 -8 -151.5t-11 -135.5q-6 -78 -13 -122t-21 -93q-14 -51 -33 -76q-18 -29 -60 -47q-26 -11 -48 -11q-15 0 -29 5q-31 10 -56 35q-27 25 -41 82q-9 35 -9 72q0 21 3 43q10 53 49 170t100.5 218t106.5 146l6 6v15v36 q0 94 -2 187q-2 94 -2 147q0 55 2 121q0 8 2 19q-2 -10 -4 -15q-18 -72 -47 -176q-27 -106 -59 -213q-31 -111 -60 -166q-29 -53 -63 -98q-39 -57 -76 -64q-9 -2 -18 -2q-34 0 -54 33q-14 27 -20 90q-4 57 -6 113.5t-3 163.5zM246 -330q-3 -18 -3 -35q0 -26 7 -51 q8 -37 22 -49q14 -14 31 -20q10 -4 29 4q23 10 30 22q12 16 23 58q14 45 21.5 86t13.5 116q6 76 8 133q4 53 8 152v29q-23 -33 -51 -78q-57 -96 -94 -205q-37 -111 -45 -162z" />
<glyph unicode="z" horiz-adv-x="1036" d="M29 890q2 13 12 22.5t25 7.5l22 -2q18 0 76 12q59 14 158 49q100 35 141 49t96 25q41 7 70 7q12 0 22 -1q27 -2 41.5 -24.5t9.5 -49.5q-4 -39 -38 -100q-29 -55 -80 -156q-51 -102 -92 -180q-35 -66 -82 -150q20 0 39 -4q35 -4 67 -14l31 -8q14 -4 20 -16.5t3 -26 t-15 -19.5t-27 -4l-30 8q-29 8 -62 15q-8 2 -20 2q-18 0 -45 -4q-51 -90 -86 -144q-39 -59 -84 -123q-18 -25 -33 -45q4 0 6 2q49 14 91 20q31 4 65 4q13 0 26 -1q45 0 127 -6q82 -4 142 -6q30 -1 58.5 -1t55.5 1q55 2 99 14q45 14 73 29l25 16l10 14q8 10 21.5 13.5t25 -5 t14.5 -21.5t-6 -26l-8 -12q-14 -23 -53 -41q-33 -16 -84 -30q-51 -16 -113 -19q-30 -1 -59.5 -1t-60.5 1q-61 2 -144 6q-80 6 -125 6q-14 1 -28 1q-26 0 -52 -3q-38 -4 -81 -18q-43 -12 -70 -27q-14 -8 -50 1.5t-16 45.5q12 20 29 43q14 25 59 86q45 59 82 119q25 37 58 94 q-27 -4 -54 -10q-55 -14 -79 -20l-25 -4q-12 -2 -24.5 5t-14.5 21.5t6 25.5t21 13l24 6q23 4 78 19q51 12 111 20q61 111 103 189.5t93 179.5q49 100 80 158q27 49 31 75q-23 0 -64 -8q-49 -8 -88 -20q-37 -14 -139 -50q-102 -35 -166 -51q-59 -14 -87 -14h-7l-25 2 q-14 2 -23 13.5t-7 24.5z" />
<glyph unicode="&#xad;" d="M29 528.5q-2 14.5 7 25.5t23 11l74 8q78 8 234 7q152 -2 262 -7q111 -6 147 -12l35 -6q12 -2 20.5 -14.5t6.5 -25.5t-14.5 -21.5t-24.5 -6.5l-35 9q-33 6 -137 10q-111 4 -262.5 6t-223.5 -6l-75 -8q-14 0 -24.5 8t-12.5 22.5z" />
<glyph unicode="&#x2000;" horiz-adv-x="791" />
<glyph unicode="&#x2001;" horiz-adv-x="1582" />
<glyph unicode="&#x2002;" horiz-adv-x="791" />
<glyph unicode="&#x2003;" horiz-adv-x="1582" />
<glyph unicode="&#x2004;" horiz-adv-x="527" />
<glyph unicode="&#x2005;" horiz-adv-x="395" />
<glyph unicode="&#x2006;" horiz-adv-x="263" />
<glyph unicode="&#x2007;" horiz-adv-x="263" />
<glyph unicode="&#x2008;" horiz-adv-x="197" />
<glyph unicode="&#x2009;" horiz-adv-x="316" />
<glyph unicode="&#x200a;" horiz-adv-x="87" />
<glyph unicode="&#x2010;" d="M29 528.5q-2 14.5 7 25.5t23 11l74 8q78 8 234 7q152 -2 262 -7q111 -6 147 -12l35 -6q12 -2 20.5 -14.5t6.5 -25.5t-14.5 -21.5t-24.5 -6.5l-35 9q-33 6 -137 10q-111 4 -262.5 6t-223.5 -6l-75 -8q-14 0 -24.5 8t-12.5 22.5z" />
<glyph unicode="&#x2011;" d="M29 528.5q-2 14.5 7 25.5t23 11l74 8q78 8 234 7q152 -2 262 -7q111 -6 147 -12l35 -6q12 -2 20.5 -14.5t6.5 -25.5t-14.5 -21.5t-24.5 -6.5l-35 9q-33 6 -137 10q-111 4 -262.5 6t-223.5 -6l-75 -8q-14 0 -24.5 8t-12.5 22.5z" />
<glyph unicode="&#x2012;" d="M29 528.5q-2 14.5 7 25.5t23 11l74 8q78 8 234 7q152 -2 262 -7q111 -6 147 -12l35 -6q12 -2 20.5 -14.5t6.5 -25.5t-14.5 -21.5t-24.5 -6.5l-35 9q-33 6 -137 10q-111 4 -262.5 6t-223.5 -6l-75 -8q-14 0 -24.5 8t-12.5 22.5z" />
<glyph unicode="&#x2013;" horiz-adv-x="1079" d="M28.5 528.5q-2.5 14.5 9 25.5t28.5 11l94 8q99 8 296 7q192 -2 331 -7q141 -6 186 -12l44 -6q16 -2 26.5 -14.5t8 -25.5t-18.5 -21.5t-31 -6.5l-44 9q-42 6 -173 10q-141 4 -332.5 6t-282.5 -6l-95 -8q-17 0 -30.5 8t-16 22.5z" />
<glyph unicode="&#x2014;" horiz-adv-x="2102" d="M29 528.5q-5 14.5 17.5 25.5t58.5 11l187 8q197 8 592 7q384 -2 662 -7q281 -6 372 -12l89 -6q30 -2 51.5 -14.5t16.5 -25.5t-36.5 -21.5t-62.5 -6.5l-88 9q-84 6 -347 10q-280 4 -663.5 6t-565.5 -6l-190 -8q-35 0 -61.5 8t-31.5 22.5z" />
<glyph unicode="&#x2018;" horiz-adv-x="141" d="M31 1262q-4 12 2 24t19.5 16.5t25.5 -2t16 -20.5l6 -16q6 -23 11 -127q2 -102 2 -158v-168q0 -14 -10.5 -24.5t-23.5 -10.5t-23.5 10.5t-10.5 24.5v168q0 55 -2 156q-4 92 -8 108z" />
<glyph unicode="&#x2019;" horiz-adv-x="133" d="M29 1253q-2 14 7 24.5t23.5 11.5t24.5 -7t12 -22l2 -35q4 -35 6 -109v-129v-88q0 -31 2 -45v-16q0 -12 -9 -23.5t-22.5 -11.5t-24.5 9t-11 24v16q-2 16 -2 47v88v129q-2 70 -4 103z" />
<glyph unicode="&#x201c;" horiz-adv-x="313" d="M29 1407l2 31q0 12 10 22t23.5 9t23.5 -11t10 -22l-2 -31q0 -31 2 -94q4 -66 6 -117t2 -84l3 -35q2 -14 -7.5 -24.5t-24 -11.5t-24.5 9.5t-12 22.5v35q-2 35 -4 86q-2 49 -6 115q-2 68 -2 100zM201 1092q-2 47 0 82t4 68.5t8 84.5q6 49 6 76v27q0 14 10.5 23t23.5 9 t23.5 -9t10.5 -23v-27q0 -31 -6 -84q-6 -49 -8.5 -82t-4.5 -68q-2 -31 0 -73l2 -45q0 -12 -9 -23.5t-22.5 -11.5t-24.5 9t-11 24z" />
<glyph unicode="&#x201d;" horiz-adv-x="303" d="M29 1423q-2 14 7 24.5t22.5 12.5t24.5 -7t13 -21l4 -33q2 -31 4 -99q2 -63 2 -141v-102v-27q0 -14 -10 -24.5t-23.5 -10.5t-23.5 10.5t-10 22.5v29v102q0 76 -2 141q-2 61 -4 93zM199 1175.5q0 67.5 2 124.5l2 84q2 27 4 46v16q2 12 13 21.5t24.5 8.5t22.5 -12.5t7 -25.5 l-2 -17q0 -14 -2 -41l-2 -82q-2 -55 -2 -121.5t4 -113.5l4 -47q0 -14 -9 -24.5t-22.5 -11.5t-24.5 8t-11 24l-4 47q-4 49 -4 116.5z" />
<glyph unicode="&#x202f;" horiz-adv-x="316" />
<glyph unicode="&#x205f;" horiz-adv-x="395" />
<glyph unicode="&#x25fc;" horiz-adv-x="1126" d="M0 0v1126h1126v-1126h-1126z" />
</font>
</defs>
</svg>
